<?xml version="1.0" encoding="UTF-8"?><svg id="Layer_1" xmlns="http://www.w3.org/2000/svg" viewBox="0 0 836.86 673.75"><defs><style>.cls-1{fill:#da0410;stroke:#da0410;}.cls-1,.cls-2,.cls-3{stroke-linecap:round;stroke-width:5px;}.cls-1,.cls-3{stroke-miterlimit:10;}.cls-4{fill:#fff;}.cls-5{fill:#0d0e40;}.cls-2{stroke:#fff;stroke-linejoin:round;}.cls-2,.cls-3{fill:none;}.cls-3{stroke:#0d0e40;}</style></defs><path class="cls-4" d="M64.8,66.57h685.61c32.29,0,58.5,26.21,58.5,58.5v431.29c0,32.29-26.21,58.5-58.5,58.5H64.8c-32.29,0-58.5-26.21-58.5-58.5V125.07c0-32.29,26.21-58.5,58.5-58.5Z"/><path class="cls-5" d="M750.41,69.07c30.88,0,56,25.12,56,56v431.29c0,30.88-25.12,56-56,56H64.8c-30.88,0-56-25.12-56-56V125.07c0-30.88,25.12-56,56-56h685.61M750.41,64.07H64.8c-33.55,0-61,27.45-61,61v431.29c0,33.55,27.45,61,61,61h685.61c33.55,0,61-27.45,61-61V125.07c0-33.55-27.45-61-61-61h0Z"/><path class="cls-4" d="M379.23,468.73h439.79c8.47,0,15.34,6.88,15.34,15.34v44.73c0,8.47-6.88,15.34-15.34,15.34h-439.79c-8.47,0-15.34-6.87-15.34-15.34v-44.73c0-8.47,6.88-15.34,15.34-15.34Z"/><path class="cls-5" d="M819.02,471.23c7.08,0,12.84,5.76,12.84,12.84v44.73c0,7.08-5.76,12.84-12.84,12.84h-439.79c-7.08,0-12.84-5.76-12.84-12.84v-44.73c0-7.08,5.76-12.84,12.84-12.84h439.79M819.02,466.23h-439.79c-9.81,0-17.84,8.03-17.84,17.84v44.73c0,9.81,8.03,17.84,17.84,17.84h439.79c9.81,0,17.84-8.03,17.84-17.84v-44.73c0-9.81-8.03-17.84-17.84-17.84h0Z"/><ellipse class="cls-1" cx="394.3" cy="497.75" rx="2.71" ry="2.99"/><ellipse class="cls-1" cx="412.5" cy="497.75" rx="2.71" ry="2.99"/><ellipse class="cls-1" cx="412.5" cy="517.77" rx="2.71" ry="2.99"/><ellipse class="cls-1" cx="394.3" cy="517.77" rx="2.71" ry="2.99"/><path class="cls-4" d="M329.19,358.42h439.79c8.47,0,15.34,6.88,15.34,15.34v44.73c0,8.47-6.88,15.34-15.34,15.34h-439.79c-8.47,0-15.34-6.88-15.34-15.34v-44.73c0-8.47,6.88-15.34,15.34-15.34Z"/><path class="cls-5" d="M768.98,360.92c7.08,0,12.84,5.76,12.84,12.84v44.73c0,7.08-5.76,12.84-12.84,12.84h-439.79c-7.08,0-12.84-5.76-12.84-12.84v-44.73c0-7.08,5.76-12.84,12.84-12.84h439.79M768.98,355.92h-439.79c-9.81,0-17.84,8.03-17.84,17.84v44.73c0,9.81,8.03,17.84,17.84,17.84h439.79c9.81,0,17.84-8.03,17.84-17.84v-44.73c0-9.81-8.03-17.84-17.84-17.84h0Z"/><ellipse class="cls-1" cx="344.26" cy="387.44" rx="2.71" ry="2.99"/><ellipse class="cls-1" cx="362.46" cy="387.44" rx="2.71" ry="2.99"/><ellipse class="cls-1" cx="362.46" cy="407.46" rx="2.71" ry="2.99"/><ellipse class="cls-1" cx="344.26" cy="407.46" rx="2.71" ry="2.99"/><path class="cls-4" d="M279.15,248.11h439.79c8.47,0,15.34,6.88,15.34,15.34v44.73c0,8.47-6.88,15.34-15.34,15.34h-439.79c-8.47,0-15.34-6.88-15.34-15.34v-44.73c0-8.47,6.88-15.34,15.34-15.34Z"/><path class="cls-5" d="M718.94,250.61c7.08,0,12.84,5.76,12.84,12.84v44.73c0,7.08-5.76,12.84-12.84,12.84h-439.79c-7.08,0-12.84-5.76-12.84-12.84v-44.73c0-7.08,5.76-12.84,12.84-12.84h439.79M718.94,245.61h-439.79c-9.81,0-17.84,8.03-17.84,17.84v44.73c0,9.81,8.03,17.84,17.84,17.84h439.79c9.81,0,17.84-8.03,17.84-17.84v-44.73c0-9.81-8.03-17.84-17.84-17.84h0Z"/><ellipse class="cls-1" cx="304.23" cy="274.57" rx="2.71" ry="2.99"/><ellipse class="cls-1" cx="322.43" cy="274.57" rx="2.71" ry="2.99"/><ellipse class="cls-1" cx="322.43" cy="294.59" rx="2.71" ry="2.99"/><ellipse class="cls-1" cx="304.23" cy="294.59" rx="2.71" ry="2.99"/><path class="cls-4" d="M202.53,137.75h439.79c8.47,0,15.34,6.88,15.34,15.34v44.73c0,8.47-6.88,15.34-15.34,15.34H202.53c-8.47,0-15.34-6.88-15.34-15.34v-44.73c0-8.47,6.88-15.34,15.34-15.34Z"/><path class="cls-5" d="M642.32,140.25c7.08,0,12.84,5.76,12.84,12.84v44.73c0,7.08-5.76,12.84-12.84,12.84H202.53c-7.08,0-12.84-5.76-12.84-12.84v-44.73c0-7.08,5.76-12.84,12.84-12.84h439.79M642.32,135.25H202.53c-9.81,0-17.84,8.03-17.84,17.84v44.73c0,9.81,8.03,17.84,17.84,17.84h439.79c9.81,0,17.84-8.03,17.84-17.84v-44.73c0-9.81-8.03-17.84-17.84-17.84h0Z"/><ellipse class="cls-1" cx="217.6" cy="166.77" rx="2.71" ry="2.99"/><ellipse class="cls-1" cx="235.8" cy="166.77" rx="2.71" ry="2.99"/><ellipse class="cls-1" cx="235.8" cy="186.79" rx="2.71" ry="2.99"/><ellipse class="cls-1" cx="217.6" cy="186.79" rx="2.71" ry="2.99"/><path class="cls-3" d="M672.65,204.44s-5.55,18.8-23.09,20.77"/><path class="cls-3" d="M173.11,144.71s5.57-17.11,23.16-18.91"/><rect class="cls-5" x="55.51" y="137.75" width="74.58" height="74.58" rx="17.8" ry="17.8"/><path class="cls-5" d="M112.29,140.25c8.43,0,15.3,6.86,15.3,15.3v38.99c0,8.43-6.86,15.3-15.3,15.3h-38.99c-8.43,0-15.3-6.86-15.3-15.3v-38.99c0-8.43,6.86-15.3,15.3-15.3h38.99M112.29,135.25h-38.99c-11.16,0-20.3,9.13-20.3,20.3v38.99c0,11.16,9.13,20.3,20.3,20.3h38.99c11.16,0,20.3-9.13,20.3-20.3v-38.99c0-11.16-9.13-20.3-20.3-20.3h0Z"/><line class="cls-2" x1="92.8" y1="153.11" x2="92.8" y2="196.97"/><line class="cls-2" x1="114.73" y1="175.04" x2="70.87" y2="175.04"/><rect class="cls-4" x="46.36" y="468" width="21.98" height="21.98" rx="4.87" ry="4.87"/><path class="cls-5" d="M63.47,469.5c1.86,0,3.37,1.51,3.37,3.37v12.24c0,1.86-1.51,3.37-3.37,3.37h-12.24c-1.86,0-3.37-1.51-3.37-3.37v-12.24c0-1.86,1.51-3.37,3.37-3.37h12.24M63.47,466.5h-12.24c-3.5,0-6.37,2.87-6.37,6.37v12.24c0,3.5,2.87,6.37,6.37,6.37h12.24c3.5,0,6.37-2.87,6.37-6.37v-12.24c0-3.5-2.87-6.37-6.37-6.37h0Z"/><path class="cls-5" d="M71.65,477.41c1.86,0,3.37,1.51,3.37,3.37v12.24c0,1.86-1.51,3.37-3.37,3.37h-12.24c-1.86,0-3.37-1.51-3.37-3.37v-12.24c0-1.86,1.51-3.37,3.37-3.37h12.24M71.65,474.41h-12.24c-3.5,0-6.37,2.87-6.37,6.37v12.24c0,3.5,2.87,6.37,6.37,6.37h12.24c3.5,0,6.37-2.87,6.37-6.37v-12.24c0-3.5-2.87-6.37-6.37-6.37h0Z"/><line class="cls-3" x1="93.42" y1="482.94" x2="221.02" y2="482.94"/><path class="cls-5" d="M102.84,542.97c-.31,0-.56-.26-.56-.56v-18.85c0-.31.26-.56.56-.56s.56.26.56.56v18.85c0,.31-.26.56-.56.56Z"/><path class="cls-5" d="M102.84,520.49c-1.69,0-3.06,1.38-3.06,3.06v18.85c0,1.69,1.38,3.06,3.06,3.06s3.06-1.38,3.06-3.06v-18.85c0-1.69-1.38-3.06-3.06-3.06h0Z"/><path class="cls-5" d="M94.14,542.97c-.31,0-.56-.26-.56-.56v-18.85c0-.31.26-.56.56-.56s.56.26.56.56v18.85c0,.31-.26.56-.56.56Z"/><path class="cls-5" d="M94.14,520.49c-1.69,0-3.06,1.38-3.06,3.06v18.85c0,1.69,1.38,3.06,3.06,3.06s3.06-1.38,3.06-3.06v-18.85c0-1.69-1.38-3.06-3.06-3.06h0Z"/><path class="cls-5" d="M85.43,542.97c-.31,0-.56-.26-.56-.56v-18.85c0-.31.26-.56.56-.56s.56.26.56.56v18.85c0,.31-.26.56-.56.56Z"/><path class="cls-5" d="M85.43,520.49c-1.69,0-3.06,1.38-3.06,3.06v18.85c0,1.69,1.38,3.06,3.06,3.06s3.06-1.38,3.06-3.06v-18.85c0-1.69-1.38-3.06-3.06-3.06h0Z"/><line class="cls-3" x1="123.44" y1="532.98" x2="221.02" y2="532.98"/><path class="cls-5" d="M102.84,343.81c-.86,0-1.56-.7-1.56-1.56v-18.85c0-.86.7-1.56,1.56-1.56s1.56.7,1.56,1.56v18.85c0,.86-.7,1.56-1.56,1.56Z"/><path class="cls-5" d="M102.84,323.33s.06.04.06.06v18.85s-.04.06-.06.06-.06-.04-.06-.06v-18.85s.04-.06.06-.06M102.84,320.33c-1.69,0-3.06,1.38-3.06,3.06v18.85c0,1.69,1.38,3.06,3.06,3.06s3.06-1.38,3.06-3.06v-18.85c0-1.69-1.38-3.06-3.06-3.06h0Z"/><path class="cls-5" d="M94.14,343.81c-.86,0-1.56-.7-1.56-1.56v-18.85c0-.86.7-1.56,1.56-1.56s1.56.7,1.56,1.56v18.85c0,.86-.7,1.56-1.56,1.56Z"/><path class="cls-5" d="M94.14,323.33s.06.04.06.06v18.85s-.04.06-.06.06-.06-.04-.06-.06v-18.85s.04-.06.06-.06M94.14,320.33c-1.69,0-3.06,1.38-3.06,3.06v18.85c0,1.69,1.38,3.06,3.06,3.06s3.06-1.38,3.06-3.06v-18.85c0-1.69-1.38-3.06-3.06-3.06h0Z"/><path class="cls-5" d="M85.43,343.81c-.86,0-1.56-.7-1.56-1.56v-18.85c0-.86.7-1.56,1.56-1.56s1.56.7,1.56,1.56v18.85c0,.86-.7,1.56-1.56,1.56Z"/><path class="cls-5" d="M85.43,323.33s.06.04.06.06v18.85s-.04.06-.06.06-.06-.04-.06-.06v-18.85s.04-.06.06-.06M85.43,320.33c-1.69,0-3.06,1.38-3.06,3.06v18.85c0,1.69,1.38,3.06,3.06,3.06s3.06-1.38,3.06-3.06v-18.85c0-1.69-1.38-3.06-3.06-3.06h0Z"/><line class="cls-3" x1="123.44" y1="332.82" x2="221.02" y2="332.82"/><rect class="cls-4" x="46.36" y="417.96" width="21.98" height="21.98" rx="4.87" ry="4.87"/><path class="cls-5" d="M63.47,419.46c1.86,0,3.37,1.51,3.37,3.37v12.24c0,1.86-1.51,3.37-3.37,3.37h-12.24c-1.86,0-3.37-1.51-3.37-3.37v-12.24c0-1.86,1.51-3.37,3.37-3.37h12.24M63.47,416.46h-12.24c-3.5,0-6.37,2.87-6.37,6.37v12.24c0,3.5,2.87,6.37,6.37,6.37h12.24c3.5,0,6.37-2.87,6.37-6.37v-12.24c0-3.5-2.87-6.37-6.37-6.37h0Z"/><path class="cls-5" d="M71.65,427.37c1.86,0,3.37,1.51,3.37,3.37v12.24c0,1.86-1.51,3.37-3.37,3.37h-12.24c-1.86,0-3.37-1.51-3.37-3.37v-12.24c0-1.86,1.51-3.37,3.37-3.37h12.24M71.65,424.37h-12.24c-3.5,0-6.37,2.87-6.37,6.37v12.24c0,3.5,2.87,6.37,6.37,6.37h12.24c3.5,0,6.37-2.87,6.37-6.37v-12.24c0-3.5-2.87-6.37-6.37-6.37h0Z"/><line class="cls-3" x1="93.42" y1="432.9" x2="221.02" y2="432.9"/><rect class="cls-4" x="46.36" y="367.92" width="21.98" height="21.98" rx="4.87" ry="4.87"/><path class="cls-5" d="M63.47,369.42c1.86,0,3.37,1.51,3.37,3.37v12.24c0,1.86-1.51,3.37-3.37,3.37h-12.24c-1.86,0-3.37-1.51-3.37-3.37v-12.24c0-1.86,1.51-3.37,3.37-3.37h12.24M63.47,366.42h-12.24c-3.5,0-6.37,2.87-6.37,6.37v12.24c0,3.5,2.87,6.37,6.37,6.37h12.24c3.5,0,6.37-2.87,6.37-6.37v-12.24c0-3.5-2.87-6.37-6.37-6.37h0Z"/><path class="cls-5" d="M71.65,377.33c1.86,0,3.37,1.51,3.37,3.37v12.24c0,1.86-1.51,3.37-3.37,3.37h-12.24c-1.86,0-3.37-1.51-3.37-3.37v-12.24c0-1.86,1.51-3.37,3.37-3.37h12.24M71.65,374.33h-12.24c-3.5,0-6.37,2.87-6.37,6.37v12.24c0,3.5,2.87,6.37,6.37,6.37h12.24c3.5,0,6.37-2.87,6.37-6.37v-12.24c0-3.5-2.87-6.37-6.37-6.37h0Z"/><line class="cls-3" x1="93.42" y1="382.86" x2="221.02" y2="382.86"/><rect class="cls-4" x="46.36" y="277.85" width="21.98" height="21.98" rx="4.87" ry="4.87"/><path class="cls-5" d="M63.47,279.35c1.86,0,3.37,1.51,3.37,3.37v12.24c0,1.86-1.51,3.37-3.37,3.37h-12.24c-1.86,0-3.37-1.51-3.37-3.37v-12.24c0-1.86,1.51-3.37,3.37-3.37h12.24M63.47,276.35h-12.24c-3.5,0-6.37,2.87-6.37,6.37v12.24c0,3.5,2.87,6.37,6.37,6.37h12.24c3.5,0,6.37-2.87,6.37-6.37v-12.24c0-3.5-2.87-6.37-6.37-6.37h0Z"/><path class="cls-5" d="M71.65,287.25c1.86,0,3.37,1.51,3.37,3.37v12.24c0,1.86-1.51,3.37-3.37,3.37h-12.24c-1.86,0-3.37-1.51-3.37-3.37v-12.24c0-1.86,1.51-3.37,3.37-3.37h12.24M71.65,284.25h-12.24c-3.5,0-6.37,2.87-6.37,6.37v12.24c0,3.5,2.87,6.37,6.37,6.37h12.24c3.5,0,6.37-2.87,6.37-6.37v-12.24c0-3.5-2.87-6.37-6.37-6.37h0Z"/><line class="cls-3" x1="93.42" y1="292.79" x2="221.02" y2="292.79"/></svg>