<?xml version="1.0" encoding="UTF-8"?><svg id="Layer_1" xmlns="http://www.w3.org/2000/svg" viewBox="0 0 679.97 399.25"><defs><style>.cls-1,.cls-2{fill:#da0410;}.cls-3{stroke:#fff;stroke-width:6px;}.cls-3,.cls-4,.cls-5,.cls-6,.cls-2{stroke-miterlimit:10;}.cls-3,.cls-5,.cls-6{fill:none;}.cls-4{fill:#ecb335;}.cls-4,.cls-5,.cls-6,.cls-2{stroke:#0d0e40;stroke-width:5px;}.cls-7{fill:#fff;}.cls-8{fill:#0d0e40;}.cls-5{stroke-linecap:round;}</style></defs><rect class="cls-7" x="297.47" y="34.1" width="336.6" height="336.6" rx="19.39" ry="19.39"/><path class="cls-8" d="M614.68,34.1h-12v5h12v-5h0ZM590.68,34.1h-12v5h12v-5h0ZM566.68,34.1h-12v5h12v-5h0ZM542.68,34.1h-12v5h12v-5h0ZM518.68,34.1h-12v5h12v-5h0ZM494.68,34.1h-12v5h12v-5h0ZM470.68,34.1h-12v5h12v-5h0ZM446.68,34.1h-12v5h12v-5h0ZM422.68,34.1h-12v5h12v-5h0ZM398.68,34.1h-12v5h12v-5h0ZM374.68,34.1h-12v5h12v-5h0ZM350.68,34.1h-12v5h12v-5h0ZM326.68,34.1h-9.82s-.02,0-.03,0h0s-.02,0-.03,0h0s-.02,0-.03,0h0s-.02,0-.03,0h0s-.02,0-.03,0c0,0,0,0,0,0,0,0-.02,0-.03,0h0s-.02,0-.03,0c0,0,0,0,0,0,0,0-.02,0-.03,0,0,0,0,0,0,0,0,0-.02,0-.03,0,0,0,0,0,0,0,0,0-.02,0-.03,0h0s-.04,0-.06,0h0s-.02,0-.03,0c0,0,0,0,0,0,0,0-.02,0-.03,0,0,0,0,0,0,0,0,0-.02,0-.03,0h0s-.06,0-.09,0h0s-.02,0-.03,0c0,0,0,0,0,0-.01,0-.02,0-.03,0h0s-.08,0-.12,0c0,0,0,0,0,0-.01,0-.02,0-.03,0,0,0,0,0,0,0-.01,0-.02,0-.03,0h0s-.06,0-.09,0c0,0,0,0,0,0-.01,0-.02,0-.03,0,0,0,0,0,0,0-.01,0-.02,0-.03,0h0s-.06,0-.09,0c0,0,0,0,0,0,0,0-.02,0-.03,0,0,0,0,0,0,0,0,0-.02,0-.03,0,0,0,0,0,0,0,0,0-.02,0-.03,0,0,0,0,0,0,0-.02,0-.04,0-.06,0,0,0,0,0,0,0,0,0-.02,0-.03,0,0,0,0,0,0,0,0,0-.02,0-.03,0,0,0,0,0,0,0,0,0-.02,0-.03,0,0,0,0,0,0,0,0,0-.02,0-.03,0,0,0,0,0,0,0,0,0-.02,0-.02,0h0s-.02,0-.02,0c0,0,0,0,0,0,0,0-.02,0-.02,0h0s-.01,0-.02,0c0,0,0,0-.01,0,0,0-.01,0-.02,0,0,0-.01,0-.02,0,0,0,0,0-.01,0,0,0-.01,0-.02,0,0,0,0,0-.01,0,0,0-.02,0-.02,0,0,0,0,0,0,0-.03,0-.05,0-.08,0,0,0,0,0,0,0-.17.01-.35.03-.52.05l.56,4.97c.53-.06,1.07-.09,1.61-.09h9.82v-5h0ZM303.92,39.08c-1.99,1.79-3.61,3.98-4.73,6.45h0s-.02.05-.04.08c0,0,0,0,0,0,0,0,0,.02-.01.03,0,0,0,0,0,0-.01.03-.02.05-.04.08,0,0,0,0,0,0,0,0,0,.02-.01.02,0,0,0,0,0,0-.01.03-.02.05-.03.08,0,0,0,0,0,0,0,0,0,.01,0,.02,0,0,0,0,0,0,0,.02-.02.03-.02.05,0,0,0,0,0,0,0,0,0,.02,0,.02,0,0,0,0,0,0,0,0,0,.01,0,.02,0,0,0,0,0,0,0,0,0,.02-.01.02,0,0,0,0,0,0,0,0,0,.02-.01.03,0,0,0,0,0,0,0,0,0,.01,0,.02h0s0,.02,0,.03c0,0,0,0,0,0,0,0,0,.02,0,.02,0,0,0,0,0,0,0,0,0,.02-.01.03,0,0,0,0,0,0,0,0,0,.01,0,.02,0,0,0,0,0,0,0,0,0,.01,0,.02,0,0,0,0,0,0,0,0,0,.01,0,.02,0,0,0,0,0,0,0,0,0,.02-.01.02,0,0,0,0,0,0,0,0,0,.01,0,.02,0,0,0,0,0,0,0,0,0,.01,0,.02,0,0,0,0,0,0,0,0,0,.01,0,.02,0,0,0,0,0,0,0,0,0,.02,0,.02,0,0,0,0,0,0,0,0,0,.01,0,.02,0,0,0,0,0,.01,0,0,0,0,0,.01,0,0,0,0,0,.01,0,0,0,.01,0,.02,0,0,0,.01,0,.02,0,0,0,.01,0,.02,0,0,0,0,0,.01,0,0,0,0,0,.01,0,0,0,0,0,.01,0,0,0,0,0,.01,0,0,0,0,0,.01,0,0,0,0,0,.01,0,0,0,.01,0,.02,0,0,0,0,0,.01,0,0,0,0,0,.01,0,0,0,0,0,.01,0,0,0,0,0,.01,0,0,0,0,0,0,0,0,0,.01,0,.02,0,0,0,0,0,0,0,.01,0,.02-.01.03,0,0,0,0,0,0,0,0,0,.01,0,.02,0,0,0,0,0,0,0,0,0,.01,0,.02,0,0,0,0,0,0,0,.02-.01.04-.02.06,0,0,0,0,0,0,0,0,0,.01,0,.02,0,0,0,0,0,0,0,0,0,.01,0,.02,0,0,0,0,0,0,0,.02-.02.04-.02.06h0s0,.01,0,.02c0,0,0,0,0,0,0,0,0,.01,0,.02,0,0,0,0,0,0-.01.03-.02.06-.03.08,0,0,0,0,0,0,0,0,0,.01,0,.02,0,0,0,0,0,0-.26.72-.47,1.46-.64,2.22l4.88,1.1c.66-2.92,2.19-5.53,4.45-7.56l-3.34-3.72h0ZM302.47,61.23h-5v12h5v-12h0ZM302.47,85.23h-5v12h5v-12h0ZM302.47,109.23h-5v12h5v-12h0ZM302.47,133.23h-5v12h5v-12h0ZM302.47,157.23h-5v12h5v-12h0ZM302.47,181.23h-5v12h5v-12h0ZM302.47,205.23h-5v12h5v-12h0ZM302.47,229.23h-5v12h5v-12h0ZM302.47,253.23h-5v12h5v-12h0ZM302.47,277.23h-5v12h5v-12h0ZM302.47,301.23h-5v12h5v-12h0ZM302.47,325.23h-5v12h5v-12h0ZM302.47,349.23h-5v2.08h0v.03h0s0,.02,0,.03h0s0,.02,0,.03h0s0,.02,0,.03c0,0,0,0,0,0,0,0,0,.02,0,.02h0s0,.02,0,.03c0,0,0,0,0,0,0,0,0,.02,0,.02h0s0,.02,0,.03c0,0,0,0,0,0,0,0,0,.02,0,.03h0s0,.02,0,.03c0,0,0,0,0,0,0,0,0,.02,0,.03h0s0,.02,0,.03c0,0,0,0,0,0,0,0,0,.02,0,.03,0,0,0,0,0,0,0,0,0,.02,0,.02,0,0,0,0,0,0,0,0,0,.02,0,.03,0,0,0,0,0,0,0,0,0,.02,0,.02,0,0,0,0,0,0,0,0,0,.02,0,.03,0,0,0,0,0,0,0,0,0,.02,0,.02h0s0,.02,0,.03c0,0,0,0,0,0,0,.02,0,.04,0,.06,0,0,0,0,0,0,0,0,0,.02,0,.03,0,0,0,0,0,0,0,0,0,.02,0,.02,0,0,0,0,0,0,0,0,0,.02,0,.03,0,0,0,0,0,0,0,0,0,.02,0,.02,0,0,0,0,0,0v.03s0,0,0,0c0,0,0,.02,0,.02,0,0,0,0,0,0,0,0,0,.02,0,.03,0,0,0,0,0,0,0,0,0,.02,0,.03,0,0,0,0,0,0,0,0,0,.02,0,.03,0,0,0,0,0,0,0,0,0,.02,0,.03h0s0,.02,0,.03c0,0,0,0,0,0,0,0,0,.02,0,.03,0,0,0,0,0,0,0,0,0,.02,0,.02,0,0,0,0,0,0,0,0,0,.02,0,.03,0,0,0,0,0,0,0,0,0,.02,0,.02,0,0,0,0,0,0v.03s0,0,0,0c0,0,0,.02,0,.02,0,0,0,0,0,0,0,0,0,.02,0,.03,0,0,0,0,0,0,0,0,0,.02,0,.03h0s0,.02,0,.03c0,0,0,0,0,0,0,0,0,.02,0,.03,0,0,0,0,0,0,0,0,0,.02,0,.03h0s0,.02,0,.03c0,0,0,0,0,0,0,0,0,.02,0,.02,0,0,0,0,0,0,0,0,0,.02,0,.03,0,0,0,0,0,0,0,0,0,.02,0,.02,0,0,0,0,0,0,0,0,0,.02,0,.03,0,0,0,0,0,0,0,0,0,.02,0,.02,0,0,0,0,0,0v.03s0,0,0,0c0,0,0,.02,0,.03,0,0,0,0,0,0,0,0,0,.02,0,.03,0,0,0,0,0,0,0,0,0,.02,0,.03,0,0,0,0,0,0,0,0,0,.02,0,.02,0,0,0,0,0,0,0,0,0,.02,0,.03,0,0,0,0,0,0,0,0,0,.01,0,.02,0,0,0,0,0,0,0,0,0,.02,0,.03,0,0,0,0,0,0,0,0,0,.02,0,.02,0,0,0,0,0,0,0,0,0,.02,0,.03,0,0,0,0,0,0,0,0,0,.02,0,.02,0,0,0,0,0,0,0,0,0,.02,0,.02,0,0,0,0,0,0v.03s0,0,0,0c0,0,0,.02,0,.02,0,0,0,0,0,0,0,0,0,.02,0,.03,0,0,0,0,0,0,0,0,0,.01,0,.02,0,0,0,0,0,0,0,0,0,.02,0,.03,0,0,0,0,0,0,0,0,0,.02,0,.02,0,0,0,0,0,0,0,0,0,.02,0,.03,0,0,0,0,0,0,0,0,0,.02,0,.03,0,0,0,0,0,0,0,0,0,.02,0,.03,0,0,0,0,0,0,0,0,0,.02,0,.03,0,0,0,0,0,0,0,0,0,.02,0,.03,0,0,0,0,0,0,0,0,0,.02,0,.03,0,0,0,0,0,0,0,0,0,.02,0,.02,0,0,0,0,0,0,0,0,0,.02,0,.03,0,0,0,0,0,0,0,0,0,.02,0,.02,0,0,0,0,0,0,0,0,0,.02,0,.03,0,0,0,0,0,0,0,0,0,.02,0,.03,0,0,0,0,0,0,0,0,0,.02,0,.03,0,0,0,0,0,0,0,0,0,.02,0,.03,0,0,0,0,0,0,0,0,0,.02,0,.03,0,0,0,0,0,0,0,0,0,.02,0,.03,0,0,0,0,0,0,0,0,0,.02,0,.03,0,0,0,0,0,0,0,0,0,.02,0,.03,0,0,0,0,0,0,0,0,0,.02,0,.02,0,0,0,0,0,0v.03s0,0,0,0c0,0,0,.02,0,.02,0,0,0,0,0,0,0,0,0,.02,0,.03,0,0,0,0,0,0,0,0,0,.02,0,.03,0,0,0,0,0,0,0,0,0,.02,0,.03,0,0,0,0,0,0,0,0,0,.02,0,.03h0s0,.02,0,.03c0,0,0,0,0,0,0,0,0,.02,0,.03,0,0,0,0,0,0,0,0,0,.01,0,.02,0,0,0,0,0,0,0,0,0,.02,0,.02,0,0,0,0,0,0,0,0,0,.01,0,.02,0,0,0,0,0,0,0,0,0,.02,0,.02,0,0,0,0,0,0,0,0,0,.01,0,.02,0,0,0,0,0,0,0,0,0,.02,0,.03,0,0,0,0,0,0,0,0,0,.02,0,.02,0,0,0,0,0,0,0,0,0,.02,0,.02,0,0,0,0,0,0v.02s0,0,0,0c0,0,0,.01,0,.02,0,0,0,0,0,0,0,0,0,.02,0,.02,0,0,0,0,0,0,0,0,0,.01,0,.02,0,0,0,0,0,0,0,0,0,.02,0,.02,0,0,0,0,0,0,0,0,0,.01,0,.02,0,0,0,0,0,0,0,0,0,.02,0,.02,0,0,0,0,0,0,0,0,0,.02,0,.02,0,0,0,0,0,0,0,0,0,.02,0,.02,0,0,0,0,0,0,0,0,0,.02,0,.03,0,0,0,0,0,0,0,0,0,.01,0,.02,0,0,0,0,0,0,0,0,0,.02,0,.02,0,0,0,0,0,0,0,0,0,.01,0,.02,0,0,0,0,0,0v.02s0,0,0,0c0,0,0,.01,0,.02,0,0,0,0,0,0,0,0,0,.02,0,.02,0,0,0,0,0,0,0,0,0,.01,0,.02,0,0,0,0,0,0,0,0,0,.02,0,.02,0,0,0,0,0,0,0,0,0,.01,0,.02,0,0,0,0,0,0,0,0,0,.01,0,.02,0,0,0,0,0,0,0,0,0,.02,0,.02,0,0,0,0,0,0,0,0,0,.01,0,.02,0,0,0,0,0,0,0,0,0,.02,0,.02,0,0,0,0,0,0,0,0,0,.01,0,.02,0,0,0,0,0,0,0,0,0,.02,0,.02h0s0,.02,0,.03c0,0,0,0,0,0,0,0,0,.01,0,.02,0,0,0,0,0,.01,0,0,0,.01,0,.02,0,0,0,0,0,.01,0,0,0,.01,0,.02,0,0,0,0,0,.01,0,0,0,.01,0,.02,0,0,0,0,0,.01,0,0,0,.01,0,.02,0,0,0,0,0,.01,0,0,0,.01,0,.02,0,0,0,0,0,0,0,0,0,.01,0,.02,0,0,0,0,0,0,0,0,0,.02,0,.02,0,0,0,0,0,0,0,0,0,.01,0,.02,0,0,0,0,0,.01,0,0,0,.01,0,.02,0,0,0,0,0,.01,0,0,0,.01,0,.02,0,0,0,0,0,.01,0,0,0,.01,0,.02,0,0,0,0,0,.01,0,0,0,.01,0,.02,0,0,0,.01,0,.02,0,0,0,0,0,.01,0,0,0,0,0,.01,0,0,0,.01,0,.02,0,0,0,0,0,.01,0,0,0,0,0,.01h0s0,.03,0,.03c0,0,0,0,0,.01,0,0,0,0,0,.01,0,0,0,0,0,.01,0,0,0,.01,0,.02,0,0,0,0,0,.01,0,0,0,0,0,.01,0,0,0,0,0,.01v.02s0,0,0,.01c0,0,0,0,0,.01,0,0,0,.01,0,.02,0,0,0,.01,0,.02,0,0,0,0,0,.01,0,0,0,0,0,.01,0,0,0,.01,0,.02,0,0,0,0,0,.01,0,0,0,0,0,.01,0,0,0,.01,0,.02,0,0,0,0,0,.01,0,0,0,0,0,.01h0s0,.03,0,.03c0,0,0,0,0,.01,0,0,0,0,0,.01,0,0,0,.01,0,.02,0,0,0,.01,0,.02,0,0,0,0,0,.01s0,0,0,.01c0,0,0,.01,0,.02,0,0,0,0,0,.01,0,0,0,0,0,.01,0,0,0,0,0,.01,0,0,0,.01,0,.02,0,0,0,0,0,.01,0,0,0,0,0,.01,0,0,0,0,0,.01,0,0,0,.01,0,.02,0,0,0,0,0,.01h0s0,.02,0,.03c0,0,0,.01,0,.02,0,0,0,0,0,.01,0,0,0,0,0,.01,0,0,0,.01,0,.02,0,0,0,0,0,.01,0,0,0,0,0,.01,0,0,0,.01,0,.02,0,0,0,0,0,.01,0,0,0,0,0,.01,0,0,0,0,0,.01,0,0,0,.01,0,.02,0,0,0,0,0,.01,0,0,0,0,0,.01,0,0,0,0,0,0,0,0,0,.02,0,.02,0,0,0,0,0,0,0,0,0,.01,0,.02,0,0,0,0,0,0,0,0,0,.02,0,.03,0,0,0,0,0,0,0,.02,0,.03.01.05,0,0,0,0,0,0,0,.01,0,.02,0,.03,0,0,0,0,0,0,0,0,0,.01,0,.02,0,0,0,0,0,0,0,.01,0,.02,0,.03,0,0,0,0,0,0,0,0,0,.01,0,.02,0,0,0,0,0,0,0,.01,0,.02,0,.03,0,0,0,0,0,0,0,0,0,.01,0,.02,0,0,0,0,0,0,0,.01,0,.02.01.03,0,0,0,0,0,0,0,.02.01.03.02.05,0,0,0,0,0,0,0,.02.01.03.02.05,0,0,0,0,0,0,0,.02.01.03.02.05,0,0,0,0,0,0,0,.01,0,.02.01.04,0,0,0,0,0,0,.01.04.02.07.03.11,0,0,0,0,0,0,.41,1.29.95,2.53,1.61,3.69l4.35-2.46c-1.21-2.14-1.85-4.57-1.85-7.02v-2.08h0ZM310.75,364.33l-2.14,4.52c.95.45,1.94.82,2.96,1.12,0,0,0,0,0,0,0,0,.02,0,.03,0,0,0,0,0,0,0,0,0,.02,0,.03,0,0,0,0,0,0,0,.03,0,.05.01.08.02,0,0,0,0,0,0,0,0,.02,0,.03,0,0,0,0,0,0,0,0,0,.02,0,.03,0,0,0,0,0,0,0,0,0,.02,0,.03,0,0,0,0,0,0,0,.02,0,.03,0,.05.01,0,0,0,0,0,0,0,0,.02,0,.02,0,0,0,0,0,0,0,0,0,.02,0,.02,0,0,0,0,0,0,0,0,0,.02,0,.02,0,0,0,0,0,0,0,.02,0,.03,0,.05.01,0,0,0,0,0,0,0,0,.02,0,.02,0,0,0,0,0,0,0,0,0,.01,0,.02,0,0,0,0,0,0,0,0,0,.01,0,.02,0,0,0,0,0,.01,0,0,0,0,0,.01,0,0,0,.01,0,.02,0,0,0,0,0,.01,0,0,0,0,0,.01,0,0,0,.01,0,.02,0,0,0,0,0,.01,0,0,0,.01,0,.02,0,0,0,0,0,.01,0,0,0,.01,0,.02,0,0,0,0,0,.01,0,0,0,0,0,.01,0,0,0,.01,0,.02,0,0,0,0,0,.01,0,0,0,.01,0,.02,0,0,0,0,0,.01,0,0,0,.01,0,.02,0s0,0,.01,0,0,0,.01,0c0,0,.01,0,.02,0,0,0,0,0,.01,0,0,0,0,0,.01,0,0,0,.01,0,.02,0,0,0,0,0,.01,0,0,0,.01,0,.02,0,0,0,0,0,.01,0,0,0,.01,0,.02,0,0,0,0,0,.01,0,0,0,.01,0,.02,0,0,0,0,0,.01,0,0,0,.01,0,.02,0,0,0,0,0,0,0,0,0,.01,0,.02,0,0,0,0,0,0,0,0,0,.01,0,.02,0,0,0,0,0,0,0,0,0,.01,0,.02,0,0,0,0,0,0,0,0,0,.01,0,.02,0h.01s.01,0,.02,0c0,0,0,0,0,0,0,0,.01,0,.02,0,0,0,0,0,0,0,0,0,.01,0,.02,0,0,0,0,0,0,0,0,0,.01,0,.02,0,0,0,0,0,0,0,0,0,.01,0,.02,0,0,0,0,0,0,0,0,0,.01,0,.02,0,0,0,0,0,0,0,0,0,.01,0,.02,0,0,0,0,0,0,0,0,0,.01,0,.02,0,0,0,0,0,0,0,0,0,.01,0,.02,0,0,0,0,0,0,0,0,0,.01,0,.02,0,0,0,0,0,0,0,0,0,.01,0,.02,0,0,0,0,0,0,0,0,0,.01,0,.02,0,0,0,0,0,0,0,0,0,.01,0,.02,0,0,0,0,0,0,0,0,0,.02,0,.02,0,0,0,0,0,0,0,0,0,.02,0,.02,0,0,0,0,0,0,0,0,0,.02,0,.02,0,0,0,0,0,0,0,0,0,.01,0,.02,0,0,0,0,0,0,0,0,0,.02,0,.02,0h0s.02,0,.02,0c0,0,0,0,0,0,0,0,.02,0,.02,0,0,0,0,0,0,0,0,0,.02,0,.02,0,0,0,0,0,0,0,0,0,.02,0,.02,0,0,0,0,0,0,0,0,0,.02,0,.03,0,0,0,0,0,0,0,0,0,.02,0,.02,0,0,0,0,0,0,0h.02s0,0,0,0c0,0,.02,0,.02,0,0,0,0,0,0,0,0,0,.02,0,.02,0h0s.02,0,.03,0c0,0,0,0,0,0,0,0,.02,0,.03,0,0,0,0,0,0,0,0,0,.02,0,.03,0,0,0,0,0,0,0,0,0,.02,0,.03,0,0,0,0,0,0,0,.02,0,.04,0,.06,0,0,0,0,0,0,0h.03s0,0,0,0c0,0,.02,0,.03,0,0,0,0,0,0,0,0,0,.02,0,.03,0,0,0,0,0,0,0,0,0,.02,0,.03,0,0,0,0,0,0,0,0,0,.02,0,.03,0,0,0,0,0,0,0,0,0,.02,0,.03,0,0,0,0,0,0,0,0,0,.02,0,.03,0,0,0,0,0,0,0,0,0,.02,0,.03,0,0,0,0,0,0,0,0,0,.02,0,.03,0,0,0,0,0,0,0,0,0,.02,0,.03,0,0,0,0,0,0,0,0,0,.02,0,.03,0,0,0,0,0,0,0,0,0,.02,0,.03,0,0,0,0,0,0,0,0,0,.02,0,.03,0,0,0,0,0,0,0,0,0,.02,0,.03,0,0,0,0,0,0,0,.02,0,.04,0,.06,0,0,0,0,0,0,0,0,0,.02,0,.03,0,0,0,0,0,0,0,0,0,.02,0,.03,0,0,0,0,0,0,0,0,0,.02,0,.03,0,0,0,0,0,0,0,0,0,.02,0,.03,0,0,0,0,0,0,0,0,0,.02,0,.03,0,0,0,0,0,0,0,0,0,.02,0,.03,0,0,0,0,0,0,0,0,0,.02,0,.03,0,0,0,0,0,0,0,0,0,.02,0,.03,0,0,0,0,0,0,0,0,0,.02,0,.03,0,0,0,0,0,0,0,.02,0,.04,0,.06,0,0,0,0,0,0,0,0,0,.02,0,.03,0,0,0,0,0,0,0,0,0,.02,0,.03,0,0,0,0,0,0,0,0,0,.02,0,.03,0,0,0,0,0,0,0,.02,0,.04,0,.06,0,0,0,0,0,0,0,0,0,.02,0,.03,0,0,0,0,0,0,0,0,0,.02,0,.03,0,0,0,0,0,0,0,0,0,.02,0,.03,0,0,0,0,0,0,0,.02,0,.04,0,.06,0,0,0,0,0,0,0,0,0,.02,0,.03,0,0,0,0,0,0,0,0,0,.02,0,.03,0,0,0,0,0,0,0,0,0,.02,0,.03,0,0,0,0,0,0,0,0,0,.02,0,.03,0,0,0,0,0,0,0,0,0,.02,0,.03,0h0s.02,0,.03,0c0,0,0,0,0,0,0,0,.02,0,.03,0,0,0,0,0,0,0,0,0,.02,0,.03,0,0,0,0,0,0,0,0,0,.02,0,.03,0,0,0,0,0,0,0,0,0,.02,0,.03,0h0s.02,0,.03,0c0,0,0,0,0,0,0,0,.02,0,.03,0,0,0,0,0,0,0,0,0,.02,0,.03,0,0,0,0,0,0,0,0,0,.02,0,.03,0,0,0,0,0,0,0,.02,0,.04,0,.06,0,0,0,0,0,0,0,0,0,.02,0,.03,0,0,0,0,0,0,0,0,0,.02,0,.03,0,0,0,0,0,0,0,0,0,.02,0,.03,0,0,0,0,0,0,0,0,0,.02,0,.03,0,0,0,0,0,0,0,.01,0,.02,0,.03,0,0,0,0,0,0,0,0,0,.02,0,.03,0,0,0,0,0,0,0,0,0,.02,0,.03,0h0s.02,0,.03,0c0,0,0,0,0,0,0,0,.02,0,.03,0h0s.02,0,.03,0h0s.02,0,.03,0c0,0,0,0,0,0,0,0,.02,0,.03,0,0,0,0,0,0,0,0,0,.02,0,.03,0,0,0,0,0,0,0,0,0,.02,0,.03,0,0,0,0,0,0,0,.02,0,.04,0,.06,0,0,0,0,0,0,0,0,0,.02,0,.03,0,0,0,0,0,0,0,0,0,.02,0,.03,0,0,0,0,0,0,0,0,0,.02,0,.03,0,0,0,0,0,0,0h.03s0,0,0,0c.01,0,.02,0,.03,0h0s.02,0,.03,0c0,0,0,0,0,0,0,0,.02,0,.03,0,0,0,0,0,0,0,0,0,.02,0,.03,0,0,0,0,0,0,0,0,0,.02,0,.03,0h0s.02,0,.03,0c0,0,0,0,0,0,0,0,.02,0,.03,0,0,0,0,0,0,0h.03s0,0,0,0c0,0,.02,0,.03,0,0,0,0,0,0,0,0,0,.02,0,.03,0,0,0,0,0,0,0,0,0,.02,0,.03,0h0s.02,0,.03,0c0,0,0,0,0,0,0,0,.02,0,.03,0,0,0,0,0,0,0,0,0,.02,0,.03,0,0,0,0,0,0,0,0,0,.02,0,.03,0,0,0,0,0,0,0,0,0,.02,0,.03,0h0s.02,0,.03,0h0s.02,0,.03,0c0,0,0,0,0,0,0,0,.02,0,.03,0,0,0,0,0,0,0,0,0,.02,0,.03,0,0,0,0,0,0,0,0,0,.02,0,.03,0,0,0,0,0,0,0,0,0,.02,0,.03,0,0,0,0,0,0,0,0,0,.02,0,.03,0h0s.02,0,.03,0c0,0,0,0,0,0,0,0,.02,0,.03,0h0s.02,0,.03,0c0,0,0,0,0,0,0,0,.02,0,.03,0h0s.02,0,.03,0c0,0,0,0,0,0,0,0,.02,0,.03,0h0s.02,0,.03,0h0s.02,0,.03,0h3.51v-5h-3.48c-2.13,0-4.18-.46-6.1-1.37h0ZM344.34,365.7h-12v5h12v-5h0ZM368.34,365.7h-12v5h12v-5h0ZM392.34,365.7h-12v5h12v-5h0ZM416.34,365.7h-12v5h12v-5h0ZM440.34,365.7h-12v5h12v-5h0ZM464.34,365.7h-12v5h12v-5h0ZM488.34,365.7h-12v5h12v-5h0ZM512.34,365.7h-12v5h12v-5h0ZM536.34,365.7h-12v5h12v-5h0ZM560.34,365.7h-12v5h12v-5h0ZM584.34,365.7h-12v5h12v-5h0ZM608.34,365.7h-12v5h12v-5h0ZM626.04,360.11c-1.83,2.36-4.4,4.13-7.23,4.98l1.45,4.79c3.9-1.18,7.28-3.56,9.73-6.7l-3.95-3.07h0ZM634.07,340.09h-5v11.22c0,.19,0,.39-.01.58l5,.2s0-.09,0-.14c0,0,0,0,0,0,0,0,0-.01,0-.02,0,0,0,0,0-.01h0s0-.03,0-.04c0,0,0,0,0,0,0,0,0-.02,0-.02,0,0,0,0,0,0,0,0,0-.01,0-.02,0,0,0,0,0,0,0,0,0-.02,0-.03h0s0-.04,0-.06c0,0,0,0,0,0,0,0,0-.02,0-.03,0,0,0,0,0,0,0-.02,0-.04,0-.06,0,0,0,0,0,0,0,0,0-.02,0-.03,0,0,0,0,0,0v-.03s0,0,0,0c0-.02,0-.04,0-.06,0,0,0,0,0,0,0,0,0-.02,0-.02h0s0-.02,0-.03c0,0,0,0,0,0,0,0,0-.02,0-.03h0s0-.02,0-.03h0s0-.02,0-.03h0v-.04h0v-11.22h0ZM634.07,316.09h-5v12h5v-12h0ZM634.07,292.09h-5v12h5v-12h0ZM634.07,268.09h-5v12h5v-12h0ZM634.07,244.09h-5v12h5v-12h0ZM634.07,220.09h-5v12h5v-12h0ZM634.07,196.09h-5v12h5v-12h0ZM634.07,172.09h-5v12h5v-12h0ZM634.07,148.09h-5v12h5v-12h0ZM634.07,124.09h-5v12h5v-12h0ZM634.07,100.09h-5v12h5v-12h0ZM634.07,76.09h-5v12h5v-12h0ZM634.02,52.09l-4.99.36c.02.34.04.69.04,1.04v10.6h5v-10.63h0s0-.02,0-.03h0s0-.02,0-.03h0s0-.02,0-.03c0,0,0,0,0,0,0,0,0-.02,0-.03h0s0-.02,0-.03c0,0,0,0,0,0,0,0,0-.02,0-.03h0s0-.02,0-.03c0,0,0,0,0,0,0,0,0-.02,0-.02,0,0,0,0,0,0,0,0,0-.02,0-.03,0,0,0,0,0,0,0,0,0-.02,0-.03,0,0,0,0,0,0,0-.02,0-.04,0-.06,0,0,0,0,0,0,0,0,0-.02,0-.03h0s0-.02,0-.03c0,0,0,0,0,0,0,0,0-.02,0-.02,0,0,0,0,0,0,0,0,0-.02,0-.03h0s0-.02,0-.03c0,0,0,0,0,0,0-.02,0-.04,0-.06,0,0,0,0,0,0v-.02s0,0,0,0c0,0,0-.02,0-.03,0,0,0,0,0,0,0,0,0-.01,0-.02,0,0,0,0,0,0,0,0,0-.02,0-.03,0,0,0,0,0,0,0,0,0-.01,0-.02,0,0,0,0,0-.01,0,0,0-.01,0-.02,0,0,0,0,0-.01,0,0,0-.01,0-.02,0,0,0,0,0-.01,0,0,0,0,0-.01,0,0,0,0,0-.01,0,0,0,0,0-.01,0,0,0-.02,0-.03,0,0,0,0,0,0,0,0,0-.01,0-.02,0,0,0,0,0,0,0-.15-.02-.3-.03-.45h0ZM619.66,34.76l-1.29,4.83c2.89.77,5.44,2.42,7.38,4.75l3.85-3.19c-2.15-2.59-4.96-4.62-8.17-5.82h0s-.06-.02-.09-.03h0s-.07-.03-.11-.04c0,0,0,0,0,0,0,0-.01,0-.02,0,0,0,0,0,0,0-.03-.01-.06-.02-.09-.03,0,0,0,0,0,0,0,0-.01,0-.02,0,0,0,0,0,0,0-.03-.01-.06-.02-.09-.03,0,0,0,0,0,0,0,0-.01,0-.02,0,0,0,0,0,0,0-.03,0-.06-.02-.09-.03,0,0,0,0,0,0,0,0-.01,0-.02,0,0,0,0,0,0,0-.03,0-.06-.02-.09-.03,0,0,0,0,0,0,0,0-.01,0-.02,0,0,0,0,0,0,0-.03,0-.06-.02-.08-.03,0,0,0,0,0,0h-.02s0,0,0,0c-.02,0-.04-.01-.06-.02,0,0,0,0,0,0,0,0-.01,0-.02,0,0,0,0,0,0,0,0,0-.01,0-.02,0,0,0,0,0,0,0-.02,0-.04-.01-.06-.02h0s-.01,0-.02,0c0,0,0,0,0,0,0,0-.01,0-.02,0,0,0,0,0,0,0,0,0-.01,0-.02,0,0,0,0,0,0,0-.01,0-.03,0-.04-.01,0,0,0,0,0,0,0,0-.01,0-.02,0,0,0,0,0,0,0,0,0-.01,0-.02,0,0,0,0,0,0,0,0,0-.01,0-.02,0h0s-.03,0-.04-.01h0s-.01,0-.02,0c0,0,0,0,0,0,0,0-.01,0-.02,0,0,0,0,0,0,0,0,0-.01,0-.02,0,0,0,0,0,0,0-.01,0-.02,0-.04-.01,0,0,0,0,0,0,0,0-.01,0-.02,0,0,0,0,0,0,0,0,0-.01,0-.02,0,0,0,0,0,0,0,0,0-.01,0-.02,0,0,0,0,0,0,0-.01,0-.02,0-.03,0,0,0,0,0-.01,0,0,0-.01,0-.02,0,0,0,0,0-.01,0,0,0-.01,0-.02,0,0,0,0,0-.01,0,0,0,0,0-.01,0,0,0,0,0-.01,0,0,0-.02,0-.02,0,0,0,0,0-.01,0,0,0,0,0-.01,0,0,0,0,0-.01,0,0,0,0,0-.01,0,0,0,0,0-.01,0,0,0,0,0-.01,0,0,0-.01,0-.02,0,0,0-.01,0-.02,0,0,0,0,0-.01,0,0,0,0,0-.01,0,0,0,0,0-.01,0,0,0,0,0-.01,0,0,0,0,0-.01,0,0,0,0,0-.01,0,0,0-.01,0-.02,0,0,0,0,0-.01,0,0,0,0,0-.01,0h0Z"/><path class="cls-7" d="M343.91,131.93h303.5c5.69,0,10.3,4.62,10.3,10.3v124.54c0,5.69-4.62,10.3-10.3,10.3h-303.5c-5.69,0-10.3-4.62-10.3-10.3v-124.53c0-5.69,4.62-10.3,10.3-10.3Z"/><path class="cls-8" d="M647.41,134.43c4.3,0,7.8,3.5,7.8,7.8v124.54c0,4.3-3.5,7.8-7.8,7.8h-303.5c-4.3,0-7.8-3.5-7.8-7.8v-124.54c0-4.3,3.5-7.8,7.8-7.8h303.5M647.41,129.43h-303.5c-7.04,0-12.8,5.76-12.8,12.8v124.54c0,7.04,5.76,12.8,12.8,12.8h303.5c7.04,0,12.8-5.76,12.8-12.8v-124.54c0-7.04-5.76-12.8-12.8-12.8h0Z"/><circle class="cls-1" cx="343.63" cy="328.42" r="20.81"/><circle class="cls-3" cx="343.63" cy="328.42" r="11.71"/><circle class="cls-7" cx="343.63" cy="328.84" r="2.26"/><circle class="cls-1" cx="590.2" cy="328.42" r="20.81"/><circle class="cls-3" cx="590.2" cy="328.42" r="11.71"/><circle class="cls-7" cx="590.2" cy="328.84" r="2.26"/><circle class="cls-1" cx="343.63" cy="77.46" r="20.81"/><circle class="cls-3" cx="343.63" cy="77.46" r="11.71"/><circle class="cls-7" cx="343.63" cy="77.87" r="2.26"/><circle class="cls-1" cx="590.2" cy="77.46" r="20.81"/><circle class="cls-3" cx="590.2" cy="77.46" r="11.71"/><circle class="cls-7" cx="590.2" cy="77.87" r="2.26"/><path class="cls-7" d="M25.34,77.56h211.82c6.39,0,11.58,5.19,11.58,11.58v220.97c0,6.39-5.19,11.58-11.58,11.58H25.34c-6.39,0-11.58-5.19-11.58-11.58V89.14c0-6.39,5.19-11.58,11.58-11.58Z"/><path class="cls-8" d="M237.16,80.06c5.01,0,9.08,4.07,9.08,9.08v220.97c0,5.01-4.07,9.08-9.08,9.08H25.34c-5.01,0-9.08-4.07-9.08-9.08V89.14c0-5.01,4.07-9.08,9.08-9.08h211.82M237.16,75.06H25.34c-7.75,0-14.08,6.34-14.08,14.08v220.97c0,7.75,6.34,14.08,14.08,14.08h211.82c7.75,0,14.08-6.34,14.08-14.08V89.14c0-7.75-6.34-14.08-14.08-14.08h0Z"/><rect class="cls-2" x="52.22" y="205.2" width="38.74" height="38.74" rx="9.88" ry="9.88"/><rect class="cls-4" x="108.84" y="204.45" width="38.74" height="38.74" rx="9.88" ry="9.88"/><rect class="cls-8" x="167.95" y="207.7" width="33.74" height="33.74" rx="7.38" ry="7.38"/><path class="cls-8" d="M194.31,210.2c2.69,0,4.88,2.19,4.88,4.88v18.98c0,2.69-2.19,4.88-4.88,4.88h-18.98c-2.69,0-4.88-2.19-4.88-4.88v-18.98c0-2.69,2.19-4.88,4.88-4.88h18.98M194.31,205.2h-18.98c-5.43,0-9.88,4.45-9.88,9.88v18.98c0,5.43,4.45,9.88,9.88,9.88h18.98c5.43,0,9.88-4.45,9.88-9.88v-18.98c0-5.43-4.45-9.88-9.88-9.88h0Z"/><path class="cls-8" d="M102.35,168.83h-13.38c-.35,0-.67-.23-.78-.56l-2.82-8.56c-.09-.28-.35-.46-.64-.46h-16.55c-.29,0-.55.19-.64.47l-2.85,8.66c-.09.28-.35.46-.63.46h-13.49c-.47,0-.79-.47-.63-.91l19.89-52.8c.12-.33.44-.55.79-.55h11.73c.31,0,.59.19.7.49l19.92,52.86c.17.44-.16.91-.63.91ZM81.27,147.28l-4.17-12.63c-.21-.63-1.1-.63-1.3,0l-4.17,12.65c-.14.43.18.87.63.87h8.36c.46,0,.79-.45.65-.9Z"/><path class="cls-8" d="M146.78,152.23c0,4.77-1.88,9.31-4.9,11.85-4.99,4.28-8.7,4.68-17.28,4.68h-16.74c-.38,0-.69-.31-.69-.69v-52.77c0-.37.3-.67.67-.67h18.82c5.66,0,10.56,1.34,13.46,3.67h0s0,0,0,0c3.1,2.37,4.75,6.03,4.75,10.61,0,3.77-2.01,7.46-5.53,10.12-.39.3-.33.9.12,1.11,4.85,2.29,7.31,6.35,7.31,12.07ZM133.73,151.41c0-1.99-.92-3.35-2.74-4.04-1.41-.56-3.18-.56-4.24-.56h-5.96c-.37,0-.66.3-.66.67v8.32c0,.37.3.67.67.67h5.95c.85,0,2.61,0,4.07-.62,1.9-.77,2.91-2.31,2.91-4.45ZM120.18,135.62c0,.37.3.67.66.67h4.27c.85,0,2.61,0,4.06-.59,1.91-.74,2.92-2.22,2.92-4.29,0-1.93-.93-3.24-2.75-3.9-1.41-.53-3.17-.53-4.23-.53h-4.26c-.37,0-.68.3-.68.67v7.97Z"/><path class="cls-8" d="M200.3,159.12c-5.26,6.92-13.37,11.01-21.96,11.01-15.33,0-27.81-12.77-27.81-28.47s12.48-28.46,27.81-28.46c4.51,0,8.82,1.07,12.79,3.19,3.41,1.81,6.46,4.37,8.88,7.45.23.29.17.72-.13.94l-9.21,6.74c-.28.21-.68.17-.91-.1-2.89-3.38-6.99-5.29-11.42-5.29-8.39,0-15.21,6.98-15.21,15.55s6.83,15.55,15.21,15.55c4.55,0,8.85-2.1,11.73-5.66.22-.27.62-.31.9-.11l9.19,6.73c.3.22.37.65.14.96Z"/><line class="cls-5" x1="49.89" y1="290.15" x2="119.3" y2="290.15"/><line class="cls-5" x1="110.61" y1="299.68" x2="119.3" y2="290.15"/><line class="cls-5" x1="110.61" y1="280.45" x2="119.3" y2="289.98"/><line class="cls-5" x1="204.2" y1="290.15" x2="134.79" y2="290.15"/><line class="cls-5" x1="143.48" y1="299.68" x2="134.79" y2="290.15"/><line class="cls-5" x1="143.48" y1="280.45" x2="134.79" y2="289.98"/><rect class="cls-7" x="297.47" y="199.62" width="13.33" height="21.93"/><line class="cls-6" x1="246.63" y1="211.41" x2="331.11" y2="211.41"/></svg>