<?xml version="1.0" encoding="UTF-8"?><svg id="Layer_1" xmlns="http://www.w3.org/2000/svg" viewBox="0 0 692.54 567.2"><defs><style>.cls-1{fill:#fff;}.cls-2{fill:#0d0e40;}.cls-3{fill:#ecb335;}</style></defs><rect class="cls-1" x="131.37" y="104.07" width="692.1" height="59.76" rx="17.61" ry="17.61"/><path class="cls-2" d="M805.86,106.57c8.33,0,15.11,6.78,15.11,15.11v24.53c0,8.33-6.78,15.11-15.11,15.11H148.99c-8.33,0-15.11-6.78-15.11-15.11v-24.53c0-8.33,6.78-15.11,15.11-15.11h656.88M805.86,101.57H148.99c-11.06,0-20.11,9.05-20.11,20.11v24.53c0,11.06,9.05,20.11,20.11,20.11h656.88c11.06,0,20.11-9.05,20.11-20.11v-24.53c0-11.06-9.05-20.11-20.11-20.11h0Z"/><rect class="cls-3" x="61.32" y="104.07" width="43.77" height="59.76" rx="12.77" ry="12.77"/><path class="cls-2" d="M92.31,106.57c5.66,0,10.27,4.61,10.27,10.27v34.22c0,5.66-4.61,10.27-10.27,10.27h-18.22c-5.66,0-10.27-4.61-10.27-10.27v-34.22c0-5.66,4.61-10.27,10.27-10.27h18.22M92.31,101.57h-18.22c-8.4,0-15.27,6.87-15.27,15.27v34.22c0,8.4,6.87,15.27,15.27,15.27h18.22c8.4,0,15.27-6.87,15.27-15.27v-34.22c0-8.4-6.87-15.27-15.27-15.27h0Z"/><rect class="cls-3" x="61.32" y="204.15" width="43.77" height="59.76" rx="12.77" ry="12.77"/><path class="cls-2" d="M92.31,206.65c5.66,0,10.27,4.61,10.27,10.27v34.22c0,5.66-4.61,10.27-10.27,10.27h-18.22c-5.66,0-10.27-4.61-10.27-10.27v-34.22c0-5.66,4.61-10.27,10.27-10.27h18.22M92.31,201.65h-18.22c-8.4,0-15.27,6.87-15.27,15.27v34.22c0,8.4,6.87,15.27,15.27,15.27h18.22c8.4,0,15.27-6.87,15.27-15.27v-34.22c0-8.4-6.87-15.27-15.27-15.27h0Z"/><rect class="cls-3" x="61.32" y="304.23" width="43.77" height="59.76" rx="12.77" ry="12.77"/><path class="cls-2" d="M92.31,306.73c5.66,0,10.27,4.61,10.27,10.27v34.22c0,5.66-4.61,10.27-10.27,10.27h-18.22c-5.66,0-10.27-4.61-10.27-10.27v-34.22c0-5.66,4.61-10.27,10.27-10.27h18.22M92.31,301.73h-18.22c-8.4,0-15.27,6.87-15.27,15.27v34.22c0,8.4,6.87,15.27,15.27,15.27h18.22c8.4,0,15.27-6.87,15.27-15.27v-34.22c0-8.4-6.87-15.27-15.27-15.27h0Z"/><rect class="cls-3" x="61.32" y="404.31" width="43.77" height="59.76" rx="12.77" ry="12.77"/><path class="cls-2" d="M92.31,406.81c5.66,0,10.27,4.61,10.27,10.27v34.22c0,5.66-4.61,10.27-10.27,10.27h-18.22c-5.66,0-10.27-4.61-10.27-10.27v-34.22c0-5.66,4.61-10.27,10.27-10.27h18.22M92.31,401.81h-18.22c-8.4,0-15.27,6.87-15.27,15.27v34.22c0,8.4,6.87,15.27,15.27,15.27h18.22c8.4,0,15.27-6.87,15.27-15.27v-34.22c0-8.4-6.87-15.27-15.27-15.27h0Z"/><rect class="cls-1" x="131.37" y="204.15" width="692.1" height="59.76" rx="17.61" ry="17.61"/><path class="cls-2" d="M805.86,206.65c8.33,0,15.11,6.78,15.11,15.11v24.53c0,8.33-6.78,15.11-15.11,15.11H148.99c-8.33,0-15.11-6.78-15.11-15.11v-24.53c0-8.33,6.78-15.11,15.11-15.11h656.88M805.86,201.65H148.99c-11.06,0-20.11,9.05-20.11,20.11v24.53c0,11.06,9.05,20.11,20.11,20.11h656.88c11.06,0,20.11-9.05,20.11-20.11v-24.53c0-11.06-9.05-20.11-20.11-20.11h0Z"/><rect class="cls-1" x="131.37" y="304.23" width="354.36" height="59.76" rx="11.94" ry="11.94"/><path class="cls-2" d="M473.79,306.73c5.21,0,9.44,4.24,9.44,9.44v35.88c0,5.21-4.24,9.44-9.44,9.44H143.31c-5.21,0-9.44-4.24-9.44-9.44v-35.88c0-5.21,4.24-9.44,9.44-9.44h330.47M473.79,301.73H143.31c-7.94,0-14.44,6.5-14.44,14.44v35.88c0,7.94,6.5,14.44,14.44,14.44h330.47c7.94,0,14.44-6.5,14.44-14.44v-35.88c0-7.94-6.5-14.44-14.44-14.44h0Z"/><rect class="cls-1" x="515.36" y="304.23" width="354.36" height="59.76" rx="11.94" ry="11.94"/><path class="cls-2" d="M857.78,306.73c5.21,0,9.44,4.24,9.44,9.44v35.88c0,5.21-4.24,9.44-9.44,9.44h-330.47c-5.21,0-9.44-4.24-9.44-9.44v-35.88c0-5.21,4.24-9.44,9.44-9.44h330.47M857.78,301.73h-330.47c-7.94,0-14.44,6.5-14.44,14.44v35.88c0,7.94,6.5,14.44,14.44,14.44h330.47c7.94,0,14.44-6.5,14.44-14.44v-35.88c0-7.94-6.5-14.44-14.44-14.44h0Z"/><rect class="cls-1" x="131.37" y="404.31" width="692.1" height="59.76" rx="17.61" ry="17.61"/><path class="cls-2" d="M805.86,406.81c8.33,0,15.11,6.78,15.11,15.11v24.53c0,8.33-6.78,15.11-15.11,15.11H148.99c-8.33,0-15.11-6.78-15.11-15.11v-24.53c0-8.33,6.78-15.11,15.11-15.11h656.88M805.86,401.81H148.99c-11.06,0-20.11,9.05-20.11,20.11v24.53c0,11.06,9.05,20.11,20.11,20.11h656.88c11.06,0,20.11-9.05,20.11-20.11v-24.53c0-11.06-9.05-20.11-20.11-20.11h0Z"/></svg>