<?xml version="1.0" encoding="UTF-8"?><svg id="Layer_1" xmlns="http://www.w3.org/2000/svg" viewBox="0 0 692.54 567.2"><defs><style>.cls-1,.cls-2{fill:#da0410;}.cls-3,.cls-2,.cls-4,.cls-5{stroke:#0d0e40;stroke-linecap:round;stroke-linejoin:round;}.cls-3,.cls-4{fill:none;}.cls-3,.cls-5{stroke-width:2px;}.cls-2{stroke-width:3px;}.cls-4{stroke-width:8px;}.cls-5,.cls-6{fill:#0d0e40;}</style></defs><rect class="cls-5" x="460.93" y="400.2" width="70.34" height="39.41" rx="9.59" ry="9.59"/><line class="cls-5" x1="552.62" y1="412.9" x2="640.44" y2="412.9"/><line class="cls-5" x1="552.62" y1="426.91" x2="640.44" y2="426.91"/><path class="cls-1" d="M106.4,146.53c0,2.62-.38,5.15-1.1,7.54-.68,2.3-3.05,6.44-4.3,8.44-.12.19-1.62,2.27-2.98,4.19-1.29,1.81-2.86,4.02-4.5,6.32-4.38,6.14-9.23,12.91-10.35,14.48-.15.21-.4.34-.66.34h-18.42c-.66,0-1.04-.74-.66-1.28l9.58-13.45c.2-.28.06-.67-.27-.76,0,0,0,0,0,0-.07-.02-.14-.04-.21-.06-.39-.11-.78-.22-1.17-.34-.19-.06-.37-.12-.56-.19-.27-.09-.54-.19-.81-.29-.28-.11-.57-.22-.85-.34-.16-.07-.32-.13-.47-.2-.42-.18-.83-.37-1.23-.58-.17-.08-.34-.17-.51-.26-.13-.07-.26-.14-.39-.22-.28-.15-.55-.31-.82-.47-.05-.03-.1-.06-.14-.09-7.77-4.69-12.97-13.15-12.97-22.81,0-14.72,12.06-26.7,26.9-26.7,3.01,0,5.91.5,8.61,1.41.03,0,.06.02.09.03.23.08.47.16.7.25,8.51,3.17,14.99,10.49,16.91,19.48.15.69.27,1.39.36,2.1.15,1.12.22,2.27.22,3.44ZM91.23,146.53c0-6.42-5.26-11.64-11.72-11.64-.53,0-1.05.04-1.56.11-5.73.76-10.16,5.64-10.16,11.53s4.3,10.63,9.9,11.5c.59.09,1.2.14,1.82.14,1.76,0,3.44-.39,4.94-1.09,3.68-1.71,6.33-5.26,6.73-9.45.04-.36.05-.73.05-1.1Z"/><path class="cls-1" d="M158.14,173.76v13.13c0,.45-.36.81-.81.81h-45.15c-.45,0-.81-.36-.81-.81v-11.69c0-.23.1-.45.27-.6l.4-.36c3.06-2.76,6.12-5.5,9.18-8.24,3.06-2.74,6.11-5.48,9.17-8.23l.2-.18c6.06-5.32,10.44-9.17,10.51-15.42,0-4.68-2.58-7.38-7.07-7.38-4.17,0-5.78,3.42-6.38,6.51-.09.46-.54.75-.99.63l-14.07-3.51c-.43-.11-.69-.54-.59-.98.67-2.84,1.84-5.79,3.91-8.58,5.85-8.35,15.39-9.25,19.22-9.25,6.77,0,12.55,2.23,16.7,6.44,3.85,3.9,5.96,9.24,5.96,15.03-.09,7.94-3,13.62-10.73,21-2.41,2.32-4.84,4.65-7.29,7-.86.82-1.73,1.65-2.59,2.48-.53.5-.17,1.39.56,1.39h19.58c.45,0,.81.36.81.81Z"/><path class="cls-1" d="M214.54,164.43c0,5.95-2.33,11.96-6.4,16.5-3.31,3.69-9.29,8.09-18.98,8.09-11.5,0-20.94-6.52-24.23-16.28-.16-.46.12-.96.6-1.06l5.8-1.19,8.88-1.75c.36-.07.72.1.88.43.68,1.4,1.68,2.62,2.9,3.56.01,0,.02.02.03.02.18.14.37.27.56.39,0,0,.02.01.03.02,1.53.99,3.35,1.56,5.3,1.56.64,0,1.27-.06,1.88-.18,1.65-.32,3.15-1.06,4.39-2.09.23-.19.45-.39.66-.6.33-.33.64-.69.92-1.07.47-.63.87-1.32,1.18-2.05.12-.29.23-.59.33-.9.09-.31.18-.62.24-.94.06-.32.11-.65.15-.97.03-.33.05-.67.05-1,0-5.42-4.39-9.82-9.8-9.82-4.2,0-7.79,2.65-9.18,6.38-.14.38-.55.59-.95.5l-5.99-1.47-6.76-1.68c-.38-.09-.64-.45-.61-.84l2.36-36.41c.03-.43.38-.76.81-.76h38c.43,0,.78.33.81.76l.87,13.97c.03.47-.34.86-.81.86h-24.5c-.42,0-.76.32-.8.73l-.45,4.55c-.06.61.54,1.06,1.11.83,2.61-1.06,5.06-1.18,7.71-1.18,8.91,0,14.36,4.24,17.35,7.79,3.59,4.26,5.65,9.85,5.65,15.34Z"/><path class="cls-6" d="M253.52,176.99c0,6.5-5.36,11.79-11.95,11.79-2.09,0-4.13-.54-5.93-1.56-.12-.07-.27.02-.27.16v7.78c0,.2-.16.36-.36.36h-6.29c-.2,0-.36-.16-.36-.36v-29.23c0-.2.16-.36.36-.36h6.29c.2,0,.36.16.36.36v.69c0,.14.15.22.27.16,1.8-1.02,3.84-1.56,5.93-1.56,6.59,0,11.95,5.29,11.95,11.79ZM245.97,176.99c0-2.98-2.46-5.41-5.48-5.41s-5.12,2.42-5.12,5.41,2.1,5.41,5.12,5.41,5.48-2.42,5.48-5.41Z"/><path class="cls-6" d="M279.48,176.99c0,6.5-5.36,11.79-11.95,11.79s-11.95-5.29-11.95-11.79,5.36-11.79,11.95-11.79,11.95,5.29,11.95,11.79ZM272.74,176.99c0-2.83-2.34-5.14-5.21-5.14s-5.21,2.3-5.21,5.14,2.34,5.14,5.21,5.14,5.21-2.31,5.21-5.14Z"/><path class="cls-6" d="M289.34,158.83v4.59c0,.2-.16.36-.36.36h-6.29c-.2,0-.36-.16-.36-.36v-4.59c0-.2.16-.36.36-.36h6.29c.2,0,.36.16.36.36ZM289.34,165.92v21.79c0,.2-.16.36-.36.36h-6.29c-.2,0-.36-.16-.36-.36v-21.79c0-.2.16-.36.36-.36h6.29c.2,0,.36.16.36.36Z"/><path class="cls-6" d="M313.57,175.05v12.67c0,.2-.16.36-.36.36h-6.71c-.2,0-.36-.16-.36-.36v-12.31c0-.83-.05-1.79-.4-2.57-.16-.33-.37-.6-.63-.8-.42-.33-.96-.49-1.66-.49-1.3,0-2.3.44-2.62,1.16-.36.78-.36,1.84-.36,2.69v12.31c0,.2-.16.36-.36.36h-6.71c-.2,0-.36-.16-.36-.36v-21.79c0-.2.16-.36.36-.36h6.29c.2,0,.36.16.36.36v.61c0,.14.16.23.28.15,5.07-3.49,10.01.38,10.06.43.18.14.35.29.51.45h0c2.29,2.31,2.68,4.18,2.68,7.5Z"/><path class="cls-6" d="M329.63,182.63l-.81,5.32c-.03.17-.16.29-.33.31-.77.05-2.83.16-3.46.16-.05,0-.09,0-.12,0-3.82-.2-5.84-2.16-5.84-5.67v-10.81c0-.2-.16-.36-.36-.36h-2.34c-.2,0-.36-.16-.36-.36v-5.33c0-.2.16-.36.36-.36h2.34c.2,0,.36-.16.36-.36v-6.17c0-.2.16-.36.36-.36h6.29c.2,0,.36.16.36.36v6.17c0,.2.16.36.36.36h2.34c.2,0,.36.16.36.36v5.33c0,.2-.16.36-.36.36h-2.34c-.2,0-.36.16-.36.36,0,1.87,0,7.39,0,7.45v.16c-.03.68-.06,1.62.49,2.18.32.33.82.49,1.49.49h1.22c.22,0,.39.2.36.41Z"/><path class="cls-6" d="M349.85,181.36c-.06.79-.26,1.62-.6,2.49-1.35,2.87-4.46,4.57-8.33,4.57-.53,0-1.08-.03-1.64-.1-1.74-.2-3.26-.67-4.53-1.38-1.3-.88-2.29-2.11-2.96-3.66-.09-.21.03-.45.25-.5l6.17-1.33c.14-.03.29.03.37.15.43.65,1.17.96,1.56,1.01.94.11,1.43-.14,1.68-.37.25-.23.36-.55.32-.9-.1-.78-.57-1.14-2.95-2.28h-.03c-.47-.24-1.07-.52-1.73-.85-.45-.2-.9-.41-1.31-.63l-.03-.02c-.06-.03-.12-.07-.18-.11-2.14-1.23-3.39-2.72-3.71-4.44-.46-2.46,1.12-4.54,1.44-4.93.48-.54,1.03-1.01,1.66-1.41,1.87-1.19,4.28-1.69,6.8-1.39,1.51.18,2.87.58,4.06,1.21.57.3,1.09.65,1.56,1.04.32.29,1.33,1.28,1.64,2.81.04.19-.09.38-.28.42l-6.07,1.23c-.17.03-.34-.06-.4-.22-.17-.42-.54-.85-1.35-.94-.53-.06-1.01.1-1.32.43-.23.26-.33.58-.25.84.12.4.53,1.05,2.8,1.97.45.18.86.34,1.28.51.53.19,1.04.39,1.52.6h0c1.44.67,4.77,2.62,4.58,6.18Z"/><polyline class="cls-4" points="52.61 291.98 114.56 272.41 180.31 277.01 246.06 255.14 311.82 245.93 377.57 268.96 443.32 239.03 509.08 212.55 574.83 165.36 640.58 114.72"/><line class="cls-3" x1="114.56" y1="272.41" x2="114.56" y2="357.25"/><line class="cls-3" x1="177.79" y1="274.59" x2="177.79" y2="357.25"/><line class="cls-3" x1="241.02" y1="255.14" x2="241.02" y2="357.25"/><line class="cls-3" x1="311.37" y1="245.36" x2="311.37" y2="357.25"/><line class="cls-3" x1="376.84" y1="272.41" x2="376.84" y2="357.25"/><line class="cls-3" x1="442.32" y1="241.36" x2="442.32" y2="357.25"/><line class="cls-3" x1="507.8" y1="213.26" x2="507.8" y2="357.25"/><line class="cls-3" x1="579.44" y1="166.51" x2="579.44" y2="357.25"/><line class="cls-3" x1="640.58" y1="114.72" x2="640.58" y2="357.25"/><line class="cls-3" x1="49.9" y1="291.01" x2="49.9" y2="357.25"/><line class="cls-3" x1="50.61" y1="357.25" x2="640.58" y2="357.25"/><circle class="cls-2" cx="640.44" cy="114.51" r="14.21"/><rect class="cls-5" x="49.9" y="400.2" width="70.34" height="39.41" rx="9.59" ry="9.59"/><line class="cls-5" x1="141.58" y1="412.9" x2="229.41" y2="412.9"/><line class="cls-5" x1="141.58" y1="426.91" x2="229.41" y2="426.91"/><rect class="cls-5" x="260.1" y="400.2" width="70.34" height="39.41" rx="9.59" ry="9.59"/><line class="cls-5" x1="351.79" y1="412.9" x2="439.61" y2="412.9"/><line class="cls-5" x1="351.79" y1="426.91" x2="439.61" y2="426.91"/></svg>