<?xml version="1.0" encoding="UTF-8"?><svg id="Layer_1" xmlns="http://www.w3.org/2000/svg" viewBox="0 0 692.54 567.2"><defs><style>.cls-1{fill:#da0410;}.cls-2{fill:none;}.cls-2,.cls-3{stroke:#0d0e40;stroke-linecap:round;stroke-linejoin:round;stroke-width:5px;}.cls-4{fill:#fff;}.cls-5,.cls-3{fill:#0d0e40;}</style></defs><rect class="cls-4" x="65.04" y="61.15" width="850.62" height="444.91" rx="33.23" ry="33.23"/><path class="cls-5" d="M882.43,63.65c16.95,0,30.73,13.79,30.73,30.73v378.44c0,16.95-13.79,30.73-30.73,30.73H98.27c-16.95,0-30.73-13.79-30.73-30.73V94.38c0-16.95,13.79-30.73,30.73-30.73h784.16M882.43,58.65H98.27c-19.65,0-35.73,16.08-35.73,35.73v378.44c0,19.65,16.08,35.73,35.73,35.73h784.16c19.65,0,35.73-16.08,35.73-35.73V94.38c0-19.65-16.08-35.73-35.73-35.73h0Z"/><rect class="cls-1" x="122.75" y="112.27" width="235.75" height="349.47" rx="36.87" ry="36.87"/><path class="cls-5" d="M321.62,114.77c18.95,0,34.37,15.42,34.37,34.37v275.73c0,18.95-15.42,34.37-34.37,34.37h-162c-18.95,0-34.37-15.42-34.37-34.37V149.15c0-18.95,15.42-34.37,34.37-34.37h162M321.62,109.77h-162c-21.74,0-39.37,17.63-39.37,39.37v275.73c0,21.74,17.63,39.37,39.37,39.37h162c21.74,0,39.37-17.63,39.37-39.37V149.15c0-21.74-17.63-39.37-39.37-39.37h0Z"/><rect class="cls-3" x="394.44" y="117.26" width="332.03" height="67.18" rx="7.88" ry="7.88"/><rect class="cls-3" x="394.44" y="403.3" width="92.24" height="53.46" rx="3.71" ry="3.71"/><path class="cls-4" d="M157.08,461.75c-18.93,0-34.33-15.22-34.33-33.92v-32.48c0-9.76,21.03-26.72,56.27-45.36,2.88-1.53,4.86-4.37,5.27-7.61.42-3.24-.77-6.5-3.18-8.71-18.06-16.58-28.51-32.8-28.51-66.66,0-31.87,8.48-61.01,23.87-82.06,16.07-21.97,38.15-33.58,63.85-33.58s47.79,11.61,63.85,33.58c15.39,21.05,23.87,50.19,23.87,82.06s-16.48,49.73-36.39,66.81c-2.44,2.09-3.64,5.25-3.2,8.43.44,3.19,2.44,5.9,5.36,7.26,39.9,18.58,64.68,36.15,64.68,45.84v32.48c0,18.7-15.4,33.92-34.33,33.92h-167.09Z"/><path class="cls-5" d="M240.32,153.87c24.88,0,46.26,11.26,61.84,32.55,15.08,20.62,23.39,49.24,23.39,80.58,0,14.5-3.1,26.29-9.77,37.12-6.54,10.62-16.24,19.63-25.75,27.79-3.09,2.65-4.6,6.64-4.05,10.67.55,4.04,3.09,7.47,6.78,9.19,10.89,5.07,26.7,12.92,40.13,21.46,21.43,13.63,23.1,20.37,23.1,22.11v32.48c0,17.33-14.28,31.42-31.83,31.42h-167.09c-17.55,0-31.83-14.1-31.83-31.42v-32.48c0-6.5,14.39-21.7,54.94-43.15,3.6-1.91,6.06-5.46,6.58-9.5.52-4.05-.96-8.11-3.97-10.87-10.36-9.51-16.84-17.91-21.04-27.25-4.55-10.12-6.67-22.06-6.67-37.57,0-31.34,8.31-59.96,23.39-80.58,15.58-21.3,36.96-32.55,61.84-32.55M240.32,148.87c-55.36,0-90.23,52.89-90.23,118.13,0,32.82,9.17,50,29.32,68.5,3.85,3.53,3.05,9.82-1.57,12.27-18.52,9.8-57.6,32.29-57.6,47.57v32.48c0,20.03,16.57,36.42,36.83,36.42h167.09c20.26,0,36.83-16.39,36.83-36.42v-32.48c0-15.57-45.74-38.61-66.12-48.1-4.56-2.12-5.41-8.26-1.59-11.53,21.65-18.58,37.26-35.76,37.26-68.7,0-65.24-34.87-118.13-90.23-118.13h0Z"/><line class="cls-2" x1="398.42" y1="231.44" x2="512.36" y2="231.44"/><line class="cls-2" x1="398.42" y1="261.47" x2="573.77" y2="261.47"/><line class="cls-2" x1="605.27" y1="261.47" x2="780.61" y2="261.47"/><line class="cls-2" x1="398.42" y1="291.49" x2="512.36" y2="291.49"/><line class="cls-2" x1="542.82" y1="291.49" x2="656.75" y2="291.49"/><line class="cls-2" x1="398.42" y1="321.52" x2="719.63" y2="321.52"/><line class="cls-2" x1="398.42" y1="351.54" x2="719.63" y2="351.54"/><line class="cls-2" x1="544.56" y1="231.44" x2="708.93" y2="231.44"/><line class="cls-2" x1="512.79" y1="403.3" x2="512.79" y2="456.76"/><line class="cls-2" x1="522.8" y1="403.3" x2="522.8" y2="456.76"/><line class="cls-2" x1="542.82" y1="403.3" x2="542.82" y2="456.76"/><line class="cls-2" x1="552.83" y1="403.3" x2="552.83" y2="456.76"/><line class="cls-2" x1="562.83" y1="403.3" x2="562.83" y2="456.76"/><line class="cls-2" x1="582.85" y1="403.3" x2="582.85" y2="456.76"/><line class="cls-2" x1="602.87" y1="403.3" x2="602.87" y2="456.76"/><line class="cls-2" x1="612.87" y1="403.3" x2="612.87" y2="456.76"/><line class="cls-2" x1="622.88" y1="403.3" x2="622.88" y2="456.76"/><line class="cls-2" x1="632.89" y1="403.3" x2="632.89" y2="456.76"/><line class="cls-2" x1="642.9" y1="403.3" x2="642.9" y2="456.76"/><line class="cls-2" x1="652.91" y1="403.3" x2="652.91" y2="456.76"/><line class="cls-2" x1="672.92" y1="403.3" x2="672.92" y2="456.76"/><line class="cls-2" x1="682.93" y1="403.3" x2="682.93" y2="456.76"/><line class="cls-2" x1="692.94" y1="403.3" x2="692.94" y2="456.76"/></svg>