<?xml version="1.0" encoding="UTF-8"?><svg id="Layer_1" xmlns="http://www.w3.org/2000/svg" viewBox="0 0 796.17 580.08"><defs><style>.cls-1,.cls-2{fill:#da0410;}.cls-3,.cls-4,.cls-5,.cls-6,.cls-7,.cls-2,.cls-8{stroke:#0d0e40;stroke-miterlimit:10;stroke-width:5px;}.cls-3,.cls-9{fill:#fff;}.cls-3,.cls-5,.cls-8{stroke-linecap:round;}.cls-4{fill:#ecb335;}.cls-10,.cls-7,.cls-8{fill:#0d0e40;}.cls-5,.cls-6{fill:none;}</style></defs><rect class="cls-9" x="82.74" y="36.99" width="668.19" height="511.7" rx="31.47" ry="31.47"/><path class="cls-10" d="M719.46,39.49c15.97,0,28.97,12.99,28.97,28.97v448.77c0,15.97-12.99,28.97-28.97,28.97H114.2c-15.97,0-28.97-12.99-28.97-28.97V68.46c0-15.97,12.99-28.97,28.97-28.97h605.26M719.46,34.49H114.2c-18.68,0-33.97,15.29-33.97,33.97v448.77c0,18.68,15.29,33.97,33.97,33.97h605.26c18.68,0,33.97-15.29,33.97-33.97V68.46c0-18.68-15.29-33.97-33.97-33.97h0Z"/><rect class="cls-10" x="17.98" y="278.31" width="354.82" height="241.94" rx="27.74" ry="27.74"/><rect class="cls-1" x="10.48" y="270.81" width="349.82" height="236.94" rx="25.24" ry="25.24"/><path class="cls-10" d="M335.06,273.31c12.54,0,22.74,10.2,22.74,22.74v186.47c0,12.54-10.2,22.74-22.74,22.74H35.71c-12.54,0-22.74-10.2-22.74-22.74v-186.47c0-12.54,10.2-22.74,22.74-22.74h299.35M335.06,268.31H35.71c-15.25,0-27.74,12.48-27.74,27.74v186.47c0,15.25,12.48,27.74,27.74,27.74h299.35c15.25,0,27.74-12.48,27.74-27.74v-186.47c0-15.25-12.48-27.74-27.74-27.74h0Z"/><line class="cls-6" x1="80.24" y1="90.59" x2="751.26" y2="90.59"/><circle class="cls-2" cx="117.66" cy="65.18" r="7.68"/><circle class="cls-4" cx="147.68" cy="65.18" r="7.68"/><circle class="cls-7" cx="177.7" cy="65.18" r="7.68"/><path class="cls-10" d="M124.12,381.32v83.77c0,1.85-1.5,3.35-3.35,3.35h-15.75c-1.86,0-3.36-1.5-3.36-3.36v-27.88c0-1.85-1.5-3.36-3.36-3.36h-20.68c-1.84,0-3.35,1.51-3.35,3.35v27.9c0,1.85-1.5,3.35-3.35,3.35h-15.75c-1.85,0-3.36-1.5-3.36-3.36v-81.52c0-1.85,1.5-3.35,3.35-3.35h15.76c1.85,0,3.35,1.5,3.35,3.35v26.75c0,1.85,1.5,3.35,3.35,3.35h20.68c1.85,0,3.36-1.5,3.36-3.36v-26.73c0-1.85,1.5-3.36,3.36-3.36h18c.61,0,1.11.5,1.11,1.11Z"/><path class="cls-10" d="M150.98,383.76v9.13c0,1.83-1.48,3.32-3.32,3.32h-14.17c-1.83,0-3.32-1.48-3.32-3.32v-9.13c0-1.83,1.48-3.32,3.32-3.32h14.17c1.83,0,3.32,1.48,3.32,3.32ZM150.98,404.79v60.16c0,1.83-1.48,3.32-3.32,3.32h-14.17c-1.83,0-3.32-1.48-3.32-3.32v-60.16c0-1.83,1.48-3.32,3.32-3.32h14.17c1.83,0,3.32,1.48,3.32,3.32Z"/><line class="cls-3" x1="314.98" y1="292.84" x2="331.27" y2="309.14"/><line class="cls-3" x1="331.27" y1="292.84" x2="314.98" y2="309.14"/><path class="cls-5" d="M72.63,52.1s6.45-23.95,28.96-24.34"/><circle class="cls-8" cx="765.2" cy="24.77" r="2.99"/><circle class="cls-8" cx="745.18" cy="16.77" r="2.99"/><circle class="cls-8" cx="784.21" cy="10.76" r="2.99"/><circle class="cls-8" cx="769.2" cy="47.79" r="2.99"/><circle class="cls-8" cx="785.21" cy="34.78" r="2.99"/><path class="cls-5" d="M764.77,528.86s-7.32,27.48-30.44,30.37"/></svg>