<svg xmlns="http://www.w3.org/2000/svg" width="20" height="20" viewBox="0 0 20 20" aria-hidden="true" focusable="false" class="logo-icon">
                        <path fill="currentColor" d="M7.43,20s-.03-.02-.07-.02c-1.3,0-2.61,0-3.91,0l-1.7-10.88C.57,8.75-.16,7.69.03,6.55c.17-.99,1.15-1.74,2.2-1.84-.13-.31-.53-.45-.56-.82-.07-.76.46-1.59,1.14-1.99.39-.24,1.26-.52,1.69-.28.08.04.57.48.62.44.09-.89.8-1.74,1.74-1.98.85-.22,1.68.02,2.31.56,1.5-1.33,3.84-.43,4.06,1.42.32-.12.49-.48.87-.52.99-.09,2.04.61,2.4,1.44.18.42.3.9-.01,1.28-.05.05-.43.41-.37.45.96.09,1.87.72,2.14,1.6.37,1.19-.39,2.41-1.64,2.79l-.03.04-1.68,10.85c-2.41,0-4.82,0-7.23,0-.04,0-.07.02-.07.02-.06,0-.11,0-.17,0ZM9.75,2.84c-.46.42-1.26.21-1.4-.38-.05-.19-.01-.33-.11-.51-.31-.58-1.3-.54-1.53.08-.17.47.24.69.12,1.15-.11.43-.84.79-1.29.75-.64-.05-.61-.67-1.11-.82-.69-.2-1.32.45-1.02,1.05.2.4.78.38.85.93.05.39-.32,1.06-.73,1.19-.5.16-.69-.16-1.14-.13-.93.07-1.03,1.46.13,1.54.46.03.99,0,1.46,0,3.46.01,6.94.01,10.4,0,.46,0,.99.03,1.44,0,1.25-.08,1.02-1.67-.1-1.53-.35.04-.46.27-.91.12-.36-.12-.75-.74-.75-1.07,0-.7.75-.63.9-1.15.18-.58-.36-1.1-1-.96-.55.11-.53.77-1.14.83-.38.04-1.03-.24-1.22-.54-.34-.54.15-.76.06-1.24-.14-.7-1.25-.82-1.57-.16-.15.31-.01.58-.32.87ZM6.68,9.21h-1.67s0,9.23,0,9.23h1.67s0-9.23,0-9.23ZM9.99,9.22h-1.67v9.22h1.67v-9.22ZM13.33,9.23h-1.67v9.21h1.67v-9.21Z"></path>
                    </svg>