<?xml version="1.0" encoding="UTF-8"?><svg id="Layer_1" xmlns="http://www.w3.org/2000/svg" viewBox="0 0 765.01 497.32"><defs><style>.cls-1{stroke:#da0410;stroke-linecap:round;}.cls-1,.cls-2,.cls-3,.cls-4,.cls-5,.cls-6,.cls-7,.cls-8{stroke-miterlimit:10;stroke-width:5px;}.cls-1,.cls-3{fill:none;}.cls-2,.cls-3,.cls-6,.cls-7{stroke:#0d0e40;}.cls-2,.cls-9,.cls-8{fill:#ecb335;}.cls-10{fill:#fff;}.cls-11,.cls-4,.cls-6{fill:#0d0e40;}.cls-4,.cls-5,.cls-8{stroke:#fff;}.cls-5,.cls-7{fill:#da0410;}</style></defs><path class="cls-10" d="M417.04,34.15h306.32c6.98,0,12.64,5.66,12.64,12.64v174.97c0,6.98-5.66,12.64-12.64,12.64h-306.32c-6.98,0-12.64-5.66-12.64-12.64V46.79c0-6.97,5.66-12.64,12.64-12.64Z"/><path class="cls-11" d="M723.36,36.65c5.59,0,10.14,4.55,10.14,10.14v174.97c0,5.59-4.55,10.14-10.14,10.14h-306.32c-5.59,0-10.14-4.55-10.14-10.14V46.79c0-5.59,4.55-10.14,10.14-10.14h306.32M723.36,31.65h-306.32c-8.33,0-15.14,6.81-15.14,15.14v174.97c0,8.33,6.81,15.14,15.14,15.14h306.32c8.33,0,15.14-6.81,15.14-15.14V46.79c0-8.33-6.81-15.14-15.14-15.14h0Z"/><rect class="cls-11" x="405.6" y="34.37" width="330.06" height="53.38" rx="7.64" ry="7.64"/><line class="cls-3" x1="401.91" y1="87.75" x2="737.42" y2="87.75"/><circle class="cls-5" cx="439.32" cy="62.34" r="7.68"/><circle class="cls-8" cx="469.35" cy="62.34" r="7.68"/><circle class="cls-4" cx="499.37" cy="62.34" r="7.68"/><path class="cls-9" d="M600.65,147.57h98.39c4.2,0,7.62,3.41,7.62,7.62v83.36c0,4.2-3.41,7.62-7.62,7.62h-98.39c-4.2,0-7.62-3.41-7.62-7.62v-83.36c0-4.2,3.41-7.62,7.62-7.62Z"/><path class="cls-11" d="M699.04,150.07c2.82,0,5.12,2.29,5.12,5.12v83.36c0,2.82-2.29,5.12-5.12,5.12h-98.39c-2.82,0-5.12-2.29-5.12-5.12v-83.36c0-2.82,2.29-5.12,5.12-5.12h98.39M699.04,145.07h-98.39c-5.56,0-10.12,4.55-10.12,10.12v83.36c0,5.56,4.55,10.12,10.12,10.12h98.39c5.56,0,10.12-4.55,10.12-10.12v-83.36c0-5.56-4.55-10.12-10.12-10.12h0Z"/><path class="cls-10" d="M49.5,34.15h306.32c6.98,0,12.64,5.66,12.64,12.64v174.97c0,6.98-5.66,12.64-12.64,12.64H49.5c-6.98,0-12.64-5.66-12.64-12.64V46.79c0-6.97,5.66-12.64,12.64-12.64Z"/><path class="cls-11" d="M355.82,36.65c5.59,0,10.14,4.55,10.14,10.14v174.97c0,5.59-4.55,10.14-10.14,10.14H49.5c-5.59,0-10.14-4.55-10.14-10.14V46.79c0-5.59,4.55-10.14,10.14-10.14h306.32M355.82,31.65H49.5c-8.33,0-15.14,6.81-15.14,15.14v174.97c0,8.33,6.81,15.14,15.14,15.14h306.32c8.33,0,15.14-6.81,15.14-15.14V46.79c0-8.33-6.81-15.14-15.14-15.14h0Z"/><line class="cls-3" x1="34.36" y1="87.75" x2="369.87" y2="87.75"/><circle class="cls-7" cx="71.78" cy="62.34" r="7.68"/><circle class="cls-2" cx="101.8" cy="62.34" r="7.68"/><circle class="cls-6" cx="131.83" cy="62.34" r="7.68"/><line class="cls-1" x1="313.63" y1="177.17" x2="343.67" y2="207.22"/><line class="cls-1" x1="313.63" y1="207.22" x2="343.67" y2="177.17"/><path class="cls-10" d="M29.48,268.8h306.32c6.98,0,12.64,5.66,12.64,12.64v174.97c0,6.98-5.66,12.64-12.64,12.64H29.48c-6.98,0-12.64-5.66-12.64-12.64v-174.98c0-6.97,5.66-12.64,12.64-12.64Z"/><path class="cls-11" d="M335.8,271.3c5.59,0,10.14,4.55,10.14,10.14v174.97c0,5.59-4.55,10.14-10.14,10.14H29.48c-5.59,0-10.14-4.55-10.14-10.14v-174.97c0-5.59,4.55-10.14,10.14-10.14h306.32M335.8,266.3H29.48c-8.33,0-15.14,6.81-15.14,15.14v174.97c0,8.33,6.81,15.14,15.14,15.14h306.32c8.33,0,15.14-6.81,15.14-15.14v-174.97c0-8.33-6.81-15.14-15.14-15.14h0Z"/><line class="cls-3" x1="14.35" y1="322.4" x2="349.86" y2="322.4"/><circle class="cls-7" cx="51.76" cy="296.99" r="7.68"/><circle class="cls-2" cx="81.79" cy="296.99" r="7.68"/><circle class="cls-6" cx="111.81" cy="296.99" r="7.68"/><line class="cls-1" x1="293.61" y1="411.82" x2="323.66" y2="441.87"/><line class="cls-1" x1="293.61" y1="441.87" x2="323.66" y2="411.82"/><path class="cls-10" d="M400.72,268.8h306.32c6.98,0,12.64,5.66,12.64,12.64v174.97c0,6.98-5.66,12.64-12.64,12.64h-306.32c-6.98,0-12.64-5.66-12.64-12.64v-174.98c0-6.97,5.66-12.64,12.64-12.64Z"/><path class="cls-11" d="M707.04,271.3c5.59,0,10.14,4.55,10.14,10.14v174.97c0,5.59-4.55,10.14-10.14,10.14h-306.32c-5.59,0-10.14-4.55-10.14-10.14v-174.97c0-5.59,4.55-10.14,10.14-10.14h306.32M707.04,266.3h-306.32c-8.33,0-15.14,6.81-15.14,15.14v174.97c0,8.33,6.81,15.14,15.14,15.14h306.32c8.33,0,15.14-6.81,15.14-15.14v-174.97c0-8.33-6.81-15.14-15.14-15.14h0Z"/><line class="cls-3" x1="385.58" y1="322.4" x2="721.09" y2="322.4"/><circle class="cls-7" cx="423" cy="296.99" r="7.68"/><circle class="cls-2" cx="453.02" cy="296.99" r="7.68"/><circle class="cls-6" cx="483.05" cy="296.99" r="7.68"/><line class="cls-1" x1="664.85" y1="411.82" x2="694.89" y2="441.87"/><line class="cls-1" x1="664.85" y1="441.87" x2="694.89" y2="411.82"/></svg>