<?xml version="1.0" encoding="UTF-8"?><svg id="Layer_1" xmlns="http://www.w3.org/2000/svg" viewBox="0 0 765.01 497.32"><defs><style>.cls-1{fill:#fff;}.cls-2{fill:#0d0e40;}.cls-3{fill:none;stroke:#0d0e40;stroke-linecap:round;stroke-miterlimit:10;stroke-width:5px;}.cls-4{fill:#ecb335;}</style></defs><path class="cls-1" d="M40.91,52.54h259.15c15.65,0,28.36,12.71,28.36,28.36v294.78c0,15.65-12.71,28.36-28.36,28.36H40.91c-15.65,0-28.36-12.71-28.36-28.36V80.9c0-15.65,12.71-28.36,28.36-28.36Z"/><path class="cls-2" d="M300.06,55.04c14.26,0,25.86,11.6,25.86,25.86v294.78c0,14.26-11.6,25.86-25.86,25.86H40.91c-14.26,0-25.86-11.6-25.86-25.86V80.9c0-14.26,11.6-25.86,25.86-25.86h259.15M300.06,50.04H40.91c-16.98,0-30.86,13.89-30.86,30.86v294.78c0,16.98,13.89,30.86,30.86,30.86h259.15c16.98,0,30.86-13.89,30.86-30.86V80.9c0-16.98-13.89-30.86-30.86-30.86h0Z"/><rect class="cls-4" x="42.57" y="233.58" width="315.88" height="125.22" rx="16.15" ry="16.15"/><path class="cls-2" d="M342.3,236.08c7.53,0,13.65,6.12,13.65,13.65v92.92c0,7.53-6.12,13.65-13.65,13.65H58.72c-7.53,0-13.65-6.12-13.65-13.65v-92.92c0-7.53,6.12-13.65,13.65-13.65h283.57M342.3,231.08H58.72c-10.26,0-18.65,8.39-18.65,18.65v92.92c0,10.26,8.39,18.65,18.65,18.65h283.57c10.26,0,18.65-8.39,18.65-18.65v-92.92c0-10.26-8.39-18.65-18.65-18.65h0Z"/><line class="cls-3" x1="72.86" y1="3.95" x2="72.86" y2="207.71"/><line class="cls-3" x1="57.13" y1="196.39" x2="72.86" y2="207.71"/><line class="cls-3" x1="88.87" y1="196.39" x2="73.14" y2="207.71"/><path class="cls-1" d="M416.08,92.57h308.24c17.03,0,30.86,13.83,30.86,30.86v289.78c0,17.03-13.83,30.86-30.86,30.86h-308.24c-17.03,0-30.86-13.83-30.86-30.86V123.44c0-17.03,13.83-30.86,30.86-30.86Z"/><path class="cls-2" d="M724.33,95.07c15.64,0,28.36,12.72,28.36,28.36v289.78c0,15.64-12.72,28.36-28.36,28.36h-308.24c-15.64,0-28.36-12.72-28.36-28.36V123.44c0-15.64,12.72-28.36,28.36-28.36h308.24M724.33,90.07h-308.24c-18.35,0-33.36,15.01-33.36,33.36v289.78c0,18.35,15.01,33.36,33.36,33.36h308.24c18.35,0,33.36-15.01,33.36-33.36V123.44c0-18.35-15.01-33.36-33.36-33.36h0Z"/><path class="cls-2" d="M375.14,131.09h343.15c6.45,0,11.69,5.24,11.69,11.69v36.73c0,6.45-5.24,11.69-11.69,11.69h-343.14c-6.45,0-11.69-5.24-11.69-11.69v-36.73c0-6.45,5.24-11.69,11.69-11.69Z"/><path class="cls-2" d="M718.29,133.59c5.07,0,9.19,4.12,9.19,9.19v36.73c0,5.07-4.12,9.19-9.19,9.19h-343.14c-5.07,0-9.19-4.12-9.19-9.19v-36.73c0-5.07,4.12-9.19,9.19-9.19h343.14M718.29,128.59h-343.14c-7.81,0-14.19,6.39-14.19,14.19v36.73c0,7.81,6.39,14.19,14.19,14.19h343.14c7.81,0,14.19-6.39,14.19-14.19v-36.73c0-7.81-6.39-14.19-14.19-14.19h0Z"/><line class="cls-3" x1="512.95" y1="228.29" x2="726.48" y2="228.29"/><line class="cls-3" x1="512.95" y1="248.31" x2="726.48" y2="248.31"/><line class="cls-3" x1="512.95" y1="268.32" x2="726.48" y2="268.32"/><line class="cls-3" x1="512.95" y1="288.34" x2="726.48" y2="288.34"/><line class="cls-3" x1="512.95" y1="308.36" x2="726.48" y2="308.36"/><line class="cls-3" x1="512.95" y1="368.4" x2="726.48" y2="368.4"/><line class="cls-3" x1="512.95" y1="388.42" x2="726.48" y2="388.42"/><line class="cls-3" x1="512.95" y1="408.44" x2="726.48" y2="408.44"/><circle class="cls-1" cx="697.98" cy="162" r="16.61"/><line class="cls-3" x1="697.98" y1="164.01" x2="697.98" y2="151.9"/><line class="cls-3" x1="697.98" y1="164.01" x2="709.25" y2="161.04"/></svg>