<?xml version="1.0" encoding="UTF-8"?><svg id="Layer_1" xmlns="http://www.w3.org/2000/svg" viewBox="0 0 692.54 567.2"><defs><style>.cls-1{fill:none;stroke:#0d0e40;stroke-linecap:round;stroke-linejoin:round;stroke-width:21px;}.cls-2{fill:#fff;}.cls-3{fill:#0d0e40;}.cls-4{fill:#ecb335;}</style></defs><rect class="cls-3" x="168.11" y="127.12" width="120.02" height="120.02" rx="19.3" ry="19.3"/><path class="cls-3" d="M268.83,129.62c9.26,0,16.8,7.54,16.8,16.8v81.42c0,9.26-7.54,16.8-16.8,16.8h-81.42c-9.26,0-16.8-7.54-16.8-16.8v-81.42c0-9.26,7.54-16.8,16.8-16.8h81.42M268.83,124.62h-81.42c-11.99,0-21.8,9.81-21.8,21.8v81.42c0,11.99,9.81,21.8,21.8,21.8h81.42c11.99,0,21.8-9.81,21.8-21.8v-81.42c0-11.99-9.81-21.8-21.8-21.8h0Z"/><rect class="cls-3" x="168.11" y="329.88" width="120.02" height="120.02" rx="19.3" ry="19.3"/><path class="cls-3" d="M268.83,332.38c9.26,0,16.8,7.54,16.8,16.8v81.42c0,9.26-7.54,16.8-16.8,16.8h-81.42c-9.26,0-16.8-7.54-16.8-16.8v-81.42c0-9.26,7.54-16.8,16.8-16.8h81.42M268.83,327.38h-81.42c-11.99,0-21.8,9.81-21.8,21.8v81.42c0,11.99,9.81,21.8,21.8,21.8h81.42c11.99,0,21.8-9.81,21.8-21.8v-81.42c0-11.99-9.81-21.8-21.8-21.8h0Z"/><path class="cls-4" d="M177.41,117.11h81.42c10.65,0,19.3,8.65,19.3,19.3v81.42c0,10.65-8.65,19.3-19.3,19.3h-81.42c-10.65,0-19.3-8.65-19.3-19.3v-81.42c0-10.65,8.65-19.3,19.3-19.3Z"/><path class="cls-3" d="M258.82,119.61c9.26,0,16.8,7.54,16.8,16.8v81.42c0,9.26-7.54,16.8-16.8,16.8h-81.42c-9.26,0-16.8-7.54-16.8-16.8v-81.42c0-9.26,7.54-16.8,16.8-16.8h81.42M258.82,114.61h-81.42c-11.99,0-21.8,9.81-21.8,21.8v81.42c0,11.99,9.81,21.8,21.8,21.8h81.42c11.99,0,21.8-9.81,21.8-21.8v-81.42c0-11.99-9.81-21.8-21.8-21.8h0Z"/><rect class="cls-2" x="158.11" y="319.87" width="120.02" height="120.02" rx="19.3" ry="19.3"/><path class="cls-3" d="M258.82,322.37c9.26,0,16.8,7.54,16.8,16.8v81.42c0,9.26-7.54,16.8-16.8,16.8h-81.42c-9.26,0-16.8-7.54-16.8-16.8v-81.42c0-9.26,7.54-16.8,16.8-16.8h81.42M258.82,317.37h-81.42c-11.99,0-21.8,9.81-21.8,21.8v81.42c0,11.99,9.81,21.8,21.8,21.8h81.42c11.99,0,21.8-9.81,21.8-21.8v-81.42c0-11.99-9.81-21.8-21.8-21.8h0Z"/><path class="cls-3" d="M381.78,146.97l-20.72,43c-.06.12-.09.25-.09.39v28.65c0,.5-.4.9-.9.9h-17.1c-.49,0-.9-.4-.9-.9v-28.65c0-.14-.03-.27-.09-.39l-20.91-42.99c-.29-.6.14-1.29.81-1.29h18.5c.36,0,.69.22.83.55l9.44,22.42c.31.73,1.34.73,1.65,0l9.53-22.43c.14-.33.47-.55.82-.55h18.31c.66,0,1.09.69.81,1.29Z"/><path class="cls-3" d="M438.95,192.25c0,1.62-.19,3.53-.48,5.22-.07.43-.45.75-.89.75h-39.35c-.7,0-1.13.76-.77,1.36,2.42,4.1,6.75,6.65,11.53,6.65,4.07,0,7.86-1.79,10.56-5.24.21-.27.54-.4.87-.34l15.07,2.71c.58.1.91.73.65,1.27-.34.71-.77,1.58-1.02,2.02h.01s-.25.42-.25.42c-.23.39-.47.77-.75,1.2-.35.54-.67,1-.99,1.42l-.19.26h-.02c-.11.14-.21.28-.32.41l-.17.21c-.21.26-.41.5-.62.74l-.18.21c-.34.38-.66.73-1.03,1.11l-.2.21c-.24.24-.48.47-.72.7l-.07.07c-.26.25-.53.49-.81.73l-.3.25-.34-.3.29.33c-.42.36-.82.67-1.21.97l-.34.25c-.46.34-.94.67-1.42.98l-.14.09c-.56.35-1.12.69-1.68,1l-.16.09c-.14.07-.27.15-.41.22l-.1.05c-.26.14-.49.25-.73.37l-.14.06c-.53.26-1.03.48-1.53.69l-.1.04c-.34.14-.64.25-.94.36l-.36.13c-.37.13-.74.26-1.11.37l-.07.02c-.4.12-.82.24-1.3.37l-.34.09c-.86.21-1.71.38-2.57.52l-.32.05c-.91.13-1.8.22-2.69.27l-.33.02c-.54.02-.97.03-1.38.03s-.87-.01-1.38-.03c-.1,0-.21-.01-.31-.02h-.1c-.34-.03-.68-.05-1.01-.08h-.1c-.1-.02-.2-.03-.29-.04-.49-.05-.92-.1-1.31-.16h-.01s-.01,0-.02,0l-.24-.04c-.36-.06-.73-.12-1.09-.2l-.39-.08c-.32-.07-.64-.14-.96-.22l-.1-.03c-.09-.02-.19-.04-.28-.07-.47-.12-.89-.24-1.27-.36-.43-.13-.84-.27-1.25-.42-.1-.04-.19-.07-.29-.11l-.07-.03c-.3-.11-.6-.23-.9-.35l-.08-.03c-.09-.04-.18-.07-.28-.11-.4-.17-.79-.34-1.19-.53l-.04-.02c-.35-.17-.74-.36-1.12-.56-.09-.05-.18-.1-.27-.15l-.07-.04c-.28-.15-.56-.31-.83-.47l-.33-.2c-.37-.22-.73-.45-1.08-.69-3.56-2.37-6.61-5.53-8.84-9.15-.19-.3-.37-.61-.54-.92l-.08-.14c-.17-.3-.33-.6-.48-.91l-.09-.17c-.05-.09-.1-.18-.14-.27-.56-1.14-1.07-2.37-1.49-3.63-.24-.71-.41-1.3-.56-1.86-.12-.46-.23-.94-.33-1.42-.3-1.45-.49-2.93-.57-4.42-.03-.5-.04-1.01-.04-1.51s.01-1.02.04-1.52c.13-2.61.62-5.2,1.46-7.7.27-.82.55-1.56.84-2.24.17-.4.35-.79.54-1.17.04-.09.09-.18.13-.27l.11-.22c.04-.09.09-.18.14-.27.05-.09.1-.19.15-.28l.26-.48c.21-.37.42-.74.65-1.11,2.22-3.61,5.28-6.78,8.84-9.15.35-.24.72-.46,1.08-.68l.33-.2c.28-.16.55-.32.83-.47l.07-.04c.09-.05.18-.1.27-.15.38-.2.76-.4,1.15-.58.4-.19.79-.36,1.19-.53.09-.04.18-.08.28-.11l.08-.03c.3-.12.6-.24.9-.35l.09-.03c.09-.04.19-.07.28-.1.41-.15.83-.29,1.24-.42.43-.13.85-.25,1.28-.36.09-.02.19-.05.28-.07l.1-.02c.32-.08.64-.15.96-.22l.23-.05c.39-.08,1.02-.2,1.42-.26h.07s.01-.01.02-.01h.01c.39-.06.82-.11,1.31-.17.1,0,.2-.02.3-.03h.1c.33-.04.67-.06,1.01-.08h.08c.11-.01.22-.02.33-.02.52-.02.97-.03,1.38-.03s.84.01,1.36.03l.33.02c.91.05,1.8.14,2.68.27l.36.05c.85.13,1.71.31,2.54.51l.37.09c.48.12.9.24,1.28.36l.06.02c.39.12.76.25,1.12.38.11.04.22.08.34.12.34.13.63.24.93.36l.15.06c.48.2.99.43,1.51.68l.13.06c.26.12.49.24.72.36l.08.04-.19.4.23-.38c.14.07.28.15.41.22.51.28,1.32.77,1.82,1.08l.06.04c.52.34,1.01.67,1.48,1.02l.08.06c.1.07.19.14.29.21.41.31.8.63,1.22.98l.24.2c.31.27.62.54.92.82l.08.07c.24.23.48.46.71.69l.18.18c.38.39.71.75,1.03,1.11l-.29.34.34-.29.16.18c.2.23.4.47.59.71l.19.23c.23.29.45.58.67.87l.03.04c.18.24.35.48.52.73l.32.49c.14.22.28.43.42.65l.55.91h0c1.11,1.95,1.99,4,2.62,6.11.81,2.7,1.21,5.5,1.22,8.31ZM421.37,184.79c-.7-4.14-5.49-7.37-11.58-7.37-5.54,0-10.79,3.21-11.58,7.35-.1.55.32,1.07.89,1.07h21.38c.56,0,.98-.5.89-1.05Z"/><path class="cls-3" d="M489.19,203.15c-.14,1.97-.65,4.06-1.51,6.22-3.36,7.16-11.13,11.42-20.79,11.42-1.33,0-2.71-.08-4.08-.24-4.35-.51-8.15-1.67-11.3-3.44-3.24-2.2-5.71-5.26-7.38-9.13-.23-.52.08-1.12.63-1.24l15.4-3.31c.36-.08.73.07.93.38,1.08,1.61,2.91,2.4,3.91,2.51,2.35.28,3.58-.35,4.19-.93.62-.58.9-1.38.79-2.25-.24-1.95-1.41-2.85-7.37-5.69l-.08-.04c-1.19-.56-2.66-1.27-4.31-2.08-1.14-.49-2.24-1.02-3.28-1.58l-.09-.05c-.15-.09-.29-.17-.45-.26-5.34-3.06-8.46-6.79-9.26-11.09-1.15-6.13,2.8-11.34,3.6-12.32,1.19-1.35,2.58-2.53,4.13-3.52,4.67-2.98,10.7-4.21,16.96-3.48,3.76.44,7.17,1.45,10.13,3.01,1.41.74,2.72,1.62,3.89,2.6.81.72,3.32,3.21,4.1,7.02.1.48-.22.95-.71,1.05l-15.15,3.06c-.43.09-.84-.16-1-.56-.43-1.05-1.36-2.12-3.36-2.35-1.33-.16-2.53.24-3.3,1.09-.58.64-.82,1.44-.63,2.1.29,1.01,1.33,2.61,6.98,4.91,1.13.44,2.15.84,3.19,1.26,1.32.47,2.59.98,3.78,1.5h0c3.6,1.68,11.92,6.55,11.42,15.42Z"/><path class="cls-3" d="M391.34,345.67v72.43c0,.5-.4.9-.9.9h-15.02c-.29,0-.56-.14-.73-.38l-25.18-35.27c-.51-.71-1.64-.35-1.63.53l.35,34.21c0,.5-.4.91-.9.91h-16.32c-.5,0-.9-.4-.9-.9v-72.43c0-.49.4-.9.9-.9h14.89c.3,0,.58.15.75.4l25.28,37.99c.49.74,1.65.39,1.64-.5l-.35-36.98c0-.5.4-.91.9-.91h16.32c.5,0,.9.4.9.9Z"/><path class="cls-3" d="M458.37,391.33c0,16.22-13.38,29.42-29.83,29.42s-29.83-13.2-29.83-29.42,13.38-29.42,29.83-29.42,29.83,13.2,29.83,29.42ZM441.54,391.33c0-7.07-5.83-12.83-13.01-12.83s-13.01,5.75-13.01,12.83,5.83,12.83,13.01,12.83,13.01-5.75,13.01-12.83Z"/><polyline class="cls-1" points="187.21 159.7 222.12 201.14 287.91 103.48"/></svg>