<?xml version="1.0" encoding="UTF-8"?><svg id="Layer_1" xmlns="http://www.w3.org/2000/svg" viewBox="0 0 692.54 567.2"><defs><style>.cls-1{fill:#da0410;}.cls-2{stroke:#0d0e40;stroke-linejoin:round;stroke-width:5px;}.cls-2,.cls-3{fill:none;stroke-linecap:round;}.cls-4{fill:#fff;}.cls-5{fill:#0d0e40;}.cls-3{stroke:#fff;stroke-miterlimit:10;stroke-width:4px;}</style></defs><path class="cls-4" d="M91.66,61.15h509.94c14.69,0,26.62,11.93,26.62,26.62v391.67c0,14.69-11.93,26.62-26.62,26.62H91.66c-14.69,0-26.62-11.93-26.62-26.62V87.77c0-14.69,11.93-26.62,26.62-26.62Z"/><path class="cls-5" d="M601.6,63.65c13.3,0,24.12,10.82,24.12,24.12v391.67c0,13.3-10.82,24.12-24.12,24.12H91.66c-13.3,0-24.12-10.82-24.12-24.12V87.77c0-13.3,10.82-24.12,24.12-24.12h509.94M601.6,58.65H91.66c-16.02,0-29.12,13.1-29.12,29.12v391.67c0,16.02,13.1,29.12,29.12,29.12h509.94c16.02,0,29.12-13.1,29.12-29.12V87.77c0-16.02-13.1-29.12-29.12-29.12h0Z"/><rect class="cls-5" x="67.93" y="61.15" width="246.77" height="441.25" rx="22.39" ry="22.39"/><path class="cls-5" d="M292.3,63.65c10.97,0,19.89,8.92,19.89,19.89v396.46c0,10.97-8.92,19.89-19.89,19.89H90.32c-10.97,0-19.89-8.92-19.89-19.89V83.54c0-10.97,8.92-19.89,19.89-19.89h201.99M292.3,58.65H90.32c-13.69,0-24.89,11.2-24.89,24.89v396.46c0,13.69,11.2,24.89,24.89,24.89h201.99c13.69,0,24.89-11.2,24.89-24.89V83.54c0-13.69-11.2-24.89-24.89-24.89h0Z"/><path class="cls-5" d="M417.99,252.46v8.38c0,.27-.22.49-.49.49h-7.23c-.27,0-.49.22-.49.49v30.31c0,.27-.22.49-.49.49h-9.36c-.27,0-.49-.22-.49-.49v-30.31c0-.27-.22-.49-.49-.49h-7.28c-.27,0-.49-.22-.49-.49v-8.38c0-.27.22-.49.49-.49h25.83c.27,0,.49.22.49.49Z"/><path class="cls-5" d="M449.75,277.47c0,8.88-7.32,16.1-16.32,16.1s-16.32-7.22-16.32-16.1,7.32-16.1,16.32-16.1,16.32,7.22,16.32,16.1ZM440.55,277.47c0-3.87-3.19-7.02-7.12-7.02s-7.12,3.15-7.12,7.02,3.19,7.02,7.12,7.02,7.12-3.15,7.12-7.02Z"/><path class="cls-5" d="M486.91,252.66v39.44c0,.27-.22.49-.49.49h-8.59c-.27,0-.49-.22-.49-.49v-.45c0-.19-.2-.3-.37-.21-2.46,1.39-5.24,2.12-8.1,2.12-9,0-16.32-7.22-16.32-16.1s7.32-16.1,16.32-16.1c2.85,0,5.64.73,8.1,2.12.16.09.37-.02.37-.21v-10.62c0-.27.22-.49.49-.49h8.59c.27,0,.49.22.49.49ZM477.34,277.46c0-4.07-2.87-7.38-7-7.38s-7.49,3.31-7.49,7.38,3.36,7.38,7.49,7.38,7-3.31,7-7.38Z"/><path class="cls-5" d="M525.19,262.34v29.76c0,.27-.22.49-.49.49h-8.59c-.27,0-.49-.22-.49-.49v-.45c0-.19-.2-.3-.37-.21-2.46,1.39-5.24,2.12-8.1,2.12-9,0-16.32-7.22-16.32-16.1s7.32-16.1,16.32-16.1c2.85,0,5.64.73,8.1,2.12.16.09.37-.02.37-.21v-.94c0-.27.22-.49.49-.49h8.59c.27,0,.49.22.49.49ZM515.62,277.46c0-4.07-2.87-7.38-7-7.38s-7.49,3.31-7.49,7.38,3.36,7.38,7.49,7.38,7-3.31,7-7.38Z"/><path class="cls-5" d="M559.59,262.52l-9.68,26.89-4.5,12.79c-.07.2-.25.33-.46.33h-9.55c-.34,0-.57-.33-.47-.65l3.74-11.08c.04-.11.03-.22,0-.33l-10.23-27.95c-.12-.32.12-.66.46-.66h8.56c.21,0,.39.13.46.32l5.6,15.15c.16.43.78.43.92-.01l5.16-15.12c.07-.2.25-.33.46-.33h9.05c.34,0,.58.34.46.66Z"/><path class="cls-5" d="M433.49,329.88c0,11.78-9.36,21.36-20.86,21.36s-20.86-9.58-20.86-21.36,9.36-21.36,20.86-21.36,20.86,9.58,20.86,21.36ZM424.04,329.88c0-6.43-5.12-11.67-11.41-11.67s-11.41,5.23-11.41,11.67,5.12,11.67,11.41,11.67,11.41-5.23,11.41-11.67Z"/><path class="cls-5" d="M465.34,332.42v17.3c0,.27-.22.49-.49.49h-9.17c-.27,0-.49-.22-.49-.49v-16.82c0-1.14-.06-2.45-.54-3.5-.22-.45-.51-.82-.86-1.09-.57-.45-1.32-.67-2.27-.67-1.77,0-3.14.61-3.57,1.59-.5,1.06-.5,2.51-.5,3.68v16.82c0,.27-.22.49-.49.49h-9.17c-.27,0-.49-.22-.49-.49v-29.76c0-.27.22-.49.49-.49h8.59c.27,0,.49.22.49.49v.83c0,.2.22.31.38.2,6.92-4.77,13.67.53,13.73.58.25.19.48.4.69.61h0c3.13,3.15,3.66,5.71,3.66,10.24Z"/><path class="cls-5" d="M480.07,310.27v39.44c0,.27-.22.49-.49.49h-9.08c-.27,0-.49-.22-.49-.49v-39.44c0-.27.22-.49.49-.49h9.08c.27,0,.49.22.49.49Z"/><path class="cls-5" d="M514.46,320.12l-9.68,26.89-4.5,12.79c-.07.2-.25.33-.46.33h-9.55c-.34,0-.57-.33-.47-.65l3.74-11.08c.04-.11.03-.22,0-.33l-10.23-27.95c-.12-.32.12-.66.46-.66h8.56c.21,0,.39.13.46.32l5.6,15.15c.16.43.78.43.92-.01l5.16-15.12c.07-.2.25-.33.46-.33h9.05c.34,0,.58.34.46.66Z"/><path class="cls-5" d="M519.65,347.25c0-2.09,1.45-3.6,3.42-3.6,2.09,0,3.42,1.51,3.42,3.6s-1.33,3.6-3.42,3.6-3.42-1.57-3.42-3.6ZM521.1,338.96l-.81-27.84h5.57l-.81,27.84h-3.94Z"/><line class="cls-2" x1="391.18" y1="386.88" x2="550.13" y2="386.88"/><line class="cls-2" x1="391.18" y1="416.9" x2="550.13" y2="416.9"/><line class="cls-2" x1="391.18" y1="446.93" x2="508.96" y2="446.93"/><circle class="cls-1" cx="583.1" cy="95.6" r="74.72"/><path class="cls-4" d="M565.46,109.35v9.01c0,.31-.25.55-.55.55h-30.97c-.31,0-.55-.25-.55-.55v-8.02c0-.16.07-.31.18-.41l.27-.25c2.1-1.89,4.2-3.78,6.3-5.65,2.1-1.88,4.19-3.76,6.29-5.65l.14-.12c4.16-3.65,7.16-6.29,7.21-10.58,0-3.21-1.77-5.06-4.85-5.06-2.86,0-3.96,2.35-4.38,4.46-.06.31-.37.51-.68.43l-9.65-2.41c-.3-.08-.48-.37-.41-.67.46-1.95,1.26-3.97,2.68-5.88,4.01-5.73,10.56-6.35,13.19-6.35,4.65,0,8.61,1.53,11.45,4.42,2.64,2.68,4.09,6.34,4.09,10.31-.06,5.45-2.06,9.35-7.36,14.41-1.65,1.59-3.32,3.19-5,4.8-.59.57-1.18,1.13-1.78,1.7-.36.35-.12.96.38.96h13.43c.31,0,.55.25.55.56Z"/><path class="cls-4" d="M609.11,95.95c0,13.3-8.77,23.71-19.97,23.71s-19.97-10.41-19.97-23.71,8.77-23.71,19.97-23.71,19.97,10.41,19.97,23.71ZM598.02,95.95c0-7.11-3.97-12.87-8.87-12.87s-8.87,5.76-8.87,12.87,3.97,12.87,8.87,12.87,8.87-5.76,8.87-12.87Z"/><path class="cls-4" d="M621.74,73.48c-.53,0-.96-.43-.96-.96s.43-.96.96-.96.96.43.96.96-.43.96-.96.96Z"/><path class="cls-4" d="M621.74,69.07c-1.91,0-3.46,1.55-3.46,3.46s1.55,3.46,3.46,3.46,3.46-1.55,3.46-3.46-1.55-3.46-3.46-3.46h0Z"/><path class="cls-4" d="M635.81,89.89c-.53,0-.96-.43-.96-.96s.43-.96.96-.96.96.43.96.96-.43.96-.96.96Z"/><path class="cls-4" d="M635.81,85.47c-1.91,0-3.46,1.55-3.46,3.46s1.55,3.46,3.46,3.46,3.46-1.55,3.46-3.46-1.55-3.46-3.46-3.46h0Z"/><line class="cls-3" x1="635.86" y1="73.69" x2="619.46" y2="87.77"/><rect class="cls-5" x="207.29" y="61.15" width="136.48" height="444.91"/><path class="cls-5" d="M341.27,63.65v439.91h-131.48V63.65h131.48M346.27,58.65h-141.48v449.91h141.48V58.65h0Z"/></svg>