<?xml version="1.0" encoding="UTF-8"?><svg id="Layer_1" xmlns="http://www.w3.org/2000/svg" viewBox="0 0 692.54 567.2"><defs><style>.cls-1{fill:#da0410;}.cls-2{fill:#fff;}.cls-3{fill:#0d0e40;}.cls-4{stroke-linecap:round;stroke-width:5px;}.cls-4,.cls-5{fill:none;stroke:#fff;stroke-linejoin:round;}.cls-5{stroke-width:8px;}</style></defs><rect class="cls-3" x="65.04" y="61.15" width="563.18" height="444.91" rx="26.62" ry="26.62"/><path class="cls-3" d="M601.6,63.65c13.3,0,24.12,10.82,24.12,24.12v391.67c0,13.3-10.82,24.12-24.12,24.12H91.66c-13.3,0-24.12-10.82-24.12-24.12V87.77c0-13.3,10.82-24.12,24.12-24.12h509.94M601.6,58.65H91.66c-16.02,0-29.12,13.1-29.12,29.12v391.67c0,16.02,13.1,29.12,29.12,29.12h509.94c16.02,0,29.12-13.1,29.12-29.12V87.77c0-16.02-13.1-29.12-29.12-29.12h0Z"/><line class="cls-4" x1="127.75" y1="361.86" x2="571.14" y2="361.86"/><line class="cls-4" x1="349.77" y1="356.85" x2="349.77" y2="367.06"/><line class="cls-4" x1="305.24" y1="356.85" x2="305.24" y2="367.06"/><line class="cls-4" x1="260.7" y1="356.85" x2="260.7" y2="367.06"/><line class="cls-4" x1="216.17" y1="356.85" x2="216.17" y2="367.06"/><line class="cls-4" x1="171.63" y1="356.85" x2="171.63" y2="367.06"/><line class="cls-4" x1="127.1" y1="356.85" x2="127.1" y2="367.06"/><line class="cls-4" x1="394.31" y1="356.85" x2="394.31" y2="367.06"/><line class="cls-4" x1="438.85" y1="356.85" x2="438.85" y2="367.06"/><line class="cls-4" x1="483.38" y1="356.85" x2="483.38" y2="367.06"/><line class="cls-4" x1="527.92" y1="356.85" x2="527.92" y2="367.06"/><line class="cls-4" x1="572.45" y1="356.85" x2="572.45" y2="367.06"/><circle class="cls-1" cx="395.76" cy="361.96" r="14.1"/><line class="cls-4" x1="127.75" y1="296.81" x2="571.14" y2="296.81"/><line class="cls-4" x1="349.77" y1="291.8" x2="349.77" y2="302"/><line class="cls-4" x1="305.24" y1="291.8" x2="305.24" y2="302"/><line class="cls-4" x1="260.7" y1="291.8" x2="260.7" y2="302"/><line class="cls-4" x1="216.17" y1="291.8" x2="216.17" y2="302"/><line class="cls-4" x1="171.63" y1="291.8" x2="171.63" y2="302"/><line class="cls-4" x1="127.1" y1="291.8" x2="127.1" y2="302"/><line class="cls-4" x1="394.31" y1="291.8" x2="394.31" y2="302"/><line class="cls-4" x1="438.85" y1="291.8" x2="438.85" y2="302"/><line class="cls-4" x1="483.38" y1="291.8" x2="483.38" y2="302"/><line class="cls-4" x1="527.92" y1="291.8" x2="527.92" y2="302"/><line class="cls-4" x1="572.45" y1="291.8" x2="572.45" y2="302"/><circle class="cls-1" cx="483.83" cy="296.9" r="14.1"/><line class="cls-4" x1="127.75" y1="426.91" x2="571.14" y2="426.91"/><line class="cls-4" x1="349.77" y1="421.91" x2="349.77" y2="432.11"/><line class="cls-4" x1="305.24" y1="421.91" x2="305.24" y2="432.11"/><line class="cls-4" x1="260.7" y1="421.91" x2="260.7" y2="432.11"/><line class="cls-4" x1="216.17" y1="421.91" x2="216.17" y2="432.11"/><line class="cls-4" x1="171.63" y1="421.91" x2="171.63" y2="432.11"/><line class="cls-4" x1="127.1" y1="421.91" x2="127.1" y2="432.11"/><line class="cls-4" x1="394.31" y1="421.91" x2="394.31" y2="432.11"/><line class="cls-4" x1="438.85" y1="421.91" x2="438.85" y2="432.11"/><line class="cls-4" x1="483.38" y1="421.91" x2="483.38" y2="432.11"/><line class="cls-4" x1="527.92" y1="421.91" x2="527.92" y2="432.11"/><line class="cls-4" x1="572.45" y1="421.91" x2="572.45" y2="432.11"/><circle class="cls-1" cx="528.87" cy="427.01" r="14.1"/><path class="cls-2" d="M159.06,131.87v35.5c0,.25-.2.46-.46.46h-8.36c-.25,0-.46-.21-.46-.46v-13.36c0-.25-.21-.46-.46-.46h-10.39c-.25,0-.46.2-.46.45v13.37c0,.25-.2.46-.46.46h-8.36c-.25,0-.46-.2-.46-.46v-35.5c0-.25.2-.46.46-.46h8.36c.25,0,.45.2.45.45v12.89c0,.25.2.45.45.45h10.39c.25,0,.46-.21.46-.46v-12.89c0-.25.2-.46.46-.46h8.36c.25,0,.46.2.46.46Z"/><path class="cls-2" d="M191.93,154.18c0,7.96-6.57,14.43-14.64,14.43s-14.64-6.48-14.64-14.43,6.57-14.43,14.64-14.43,14.64,6.47,14.64,14.43ZM183.67,154.18c0-3.47-2.86-6.29-6.38-6.29s-6.38,2.82-6.38,6.29,2.86,6.29,6.38,6.29,6.38-2.82,6.38-6.29Z"/><path class="cls-2" d="M232.28,140.74l-7.14,26.68c-.05.19-.23.33-.43.33h-8.04c-.19,0-.35-.12-.41-.29l-3.29-9.21c-.14-.39-.69-.39-.83,0l-3.29,9.21c-.06.18-.23.29-.41.29h-8.04c-.2,0-.37-.13-.43-.33l-7.14-26.68c-.08-.28.14-.55.42-.55h7.68c.21,0,.39.15.43.35l2.79,13.54c.09.44.7.48.85.06l4.88-13.66c.06-.17.23-.29.41-.29h4.53c.19,0,.35.12.41.29l4.94,13.83c.13.37.67.33.75-.05l2.83-13.72c.04-.21.22-.35.43-.35h7.68c.29,0,.5.27.43.55Z"/><path class="cls-2" d="M274.53,131.93v35.37c0,.24-.2.44-.44.44h-7.7c-.24,0-.44-.2-.44-.44v-.41c0-.17-.18-.27-.33-.19-2.21,1.25-4.7,1.9-7.26,1.9-8.07,0-14.64-6.48-14.64-14.43s6.57-14.43,14.64-14.43c2.56,0,5.05.66,7.26,1.9.15.08.33-.02.33-.19v-9.52c0-.24.2-.44.44-.44h7.7c.24,0,.44.2.44.44ZM265.95,154.17c0-3.65-2.57-6.62-6.27-6.62s-6.71,2.97-6.71,6.62,3.01,6.62,6.71,6.62,6.27-2.97,6.27-6.62Z"/><path class="cls-2" d="M287.61,131.95v5.62c0,.24-.2.44-.44.44h-7.7c-.24,0-.44-.2-.44-.44v-5.62c0-.24.2-.44.44-.44h7.7c.24,0,.44.2.44.44ZM287.61,140.63v26.68c0,.24-.2.44-.44.44h-7.7c-.24,0-.44-.2-.44-.44v-26.68c0-.24.2-.44.44-.44h7.7c.24,0,.44.2.44.44Z"/><path class="cls-2" d="M321.96,131.93v35.37c0,.24-.2.44-.44.44h-7.7c-.24,0-.44-.2-.44-.44v-.41c0-.17-.18-.27-.33-.19-2.21,1.25-4.7,1.9-7.26,1.9-8.07,0-14.64-6.48-14.64-14.43s6.57-14.43,14.64-14.43c2.56,0,5.05.66,7.26,1.9.15.08.33-.02.33-.19v-9.52c0-.24.2-.44.44-.44h7.7c.24,0,.44.2.44.44ZM313.37,154.17c0-3.65-2.57-6.62-6.27-6.62s-6.71,2.97-6.71,6.62,3.01,6.62,6.71,6.62,6.27-2.97,6.27-6.62Z"/><path class="cls-2" d="M373.82,140.74l-7.14,26.68c-.05.19-.23.33-.43.33h-8.04c-.19,0-.35-.12-.41-.29l-3.29-9.21c-.14-.39-.69-.39-.83,0l-3.29,9.21c-.06.18-.23.29-.41.29h-8.04c-.2,0-.37-.13-.43-.33l-7.14-26.68c-.08-.28.14-.55.42-.55h7.68c.21,0,.39.15.43.35l2.79,13.54c.09.44.7.48.85.06l4.88-13.66c.06-.17.23-.29.41-.29h4.53c.19,0,.35.12.41.29l4.94,13.83c.13.37.67.33.75-.05l2.83-13.72c.04-.21.22-.35.43-.35h7.68c.29,0,.5.27.43.55Z"/><path class="cls-2" d="M404.03,154.18c0,.79-.09,1.73-.24,2.56-.04.21-.22.37-.44.37h-19.31c-.34,0-.55.37-.38.67,1.19,2.01,3.31,3.26,5.66,3.26,2,0,3.85-.88,5.18-2.57.1-.13.26-.2.43-.17l7.39,1.33c.29.05.45.36.32.62-.17.35-.38.78-.5.99h0s-.12.21-.12.21c-.11.19-.23.38-.37.59-.17.26-.33.49-.49.7l-.09.13h0c-.05.07-.1.14-.16.2l-.08.1c-.1.13-.2.25-.3.36l-.09.1c-.17.19-.33.36-.5.54l-.1.1c-.12.12-.23.23-.35.34l-.04.03c-.13.12-.26.24-.4.36l-.15.12-.17-.15.14.16c-.21.17-.4.33-.6.48l-.17.12c-.23.17-.46.33-.7.48l-.07.04c-.27.17-.55.34-.82.49l-.08.04c-.07.04-.13.07-.2.11l-.05.02c-.13.07-.24.12-.36.18l-.07.03c-.26.13-.51.24-.75.34l-.05.02c-.17.07-.31.12-.46.18l-.18.06c-.18.06-.36.13-.55.18h-.03c-.2.07-.4.13-.64.19l-.17.04c-.42.1-.84.19-1.26.25l-.16.02c-.44.06-.88.11-1.32.13h-.16c-.26.02-.48.02-.68.02s-.43,0-.68-.02c-.05,0-.1,0-.15,0h-.05c-.17-.01-.33-.03-.5-.04h-.05s-.1-.01-.14-.02c-.24-.03-.45-.05-.64-.08h0s0,0,0,0l-.12-.02c-.18-.03-.36-.06-.53-.1l-.19-.04c-.16-.03-.32-.07-.47-.11h-.05s-.09-.03-.14-.05c-.23-.06-.44-.12-.62-.17-.21-.06-.41-.13-.61-.2-.05-.02-.1-.03-.14-.05h-.04c-.15-.07-.3-.13-.44-.19l-.04-.02s-.09-.04-.14-.06c-.2-.08-.39-.17-.58-.26h-.02c-.17-.09-.36-.19-.55-.29-.04-.02-.09-.05-.13-.07l-.04-.02c-.14-.07-.27-.15-.41-.23l-.16-.1c-.18-.11-.36-.22-.53-.34-1.75-1.16-3.25-2.71-4.34-4.49-.09-.15-.18-.3-.27-.45l-.04-.07c-.08-.15-.16-.3-.24-.45l-.04-.08s-.05-.09-.07-.13c-.28-.56-.52-1.16-.73-1.78-.12-.35-.2-.64-.27-.91-.06-.23-.11-.46-.16-.7-.15-.71-.24-1.44-.28-2.17-.01-.25-.02-.5-.02-.74s0-.5.02-.74c.07-1.28.31-2.55.72-3.78.13-.4.27-.76.41-1.1.08-.19.17-.39.26-.57.02-.04.04-.09.07-.13l.05-.11s.04-.09.07-.13c.02-.05.05-.09.07-.14l.13-.23c.1-.18.21-.36.32-.54,1.09-1.77,2.59-3.33,4.34-4.49.17-.12.35-.23.53-.34l.16-.1c.14-.08.27-.16.41-.23l.04-.02s.09-.05.13-.07c.19-.1.37-.19.57-.29.19-.09.39-.18.58-.26.05-.02.09-.04.14-.06l.04-.02c.15-.06.29-.12.44-.17l.04-.02s.09-.03.14-.05c.2-.07.41-.14.61-.2.21-.06.42-.12.63-.18.04-.01.09-.02.14-.03h.05c.16-.05.31-.09.47-.12l.11-.02c.19-.04.5-.1.69-.13h.03s0,0,0,0h0c.19-.03.4-.06.64-.08.05,0,.1,0,.15-.01h.05c.16-.02.33-.03.5-.04h.04c.05,0,.11,0,.16-.01.25-.01.47-.02.68-.02s.41,0,.67.02h.16c.44.03.88.08,1.31.14l.18.03c.42.07.84.15,1.25.25l.18.05c.23.06.44.12.63.18h.03c.19.07.37.13.55.19.05.02.11.04.17.06.17.06.31.12.46.18l.07.03c.24.1.49.21.74.33l.06.03c.13.06.24.12.35.18l.04.02-.09.2.11-.19c.07.04.14.07.2.11.25.14.65.38.89.53l.03.02c.25.17.49.33.73.5l.04.03s.09.07.14.1c.2.15.39.31.6.48l.12.1c.15.13.3.26.45.4l.04.04c.12.11.23.22.35.34l.09.09c.18.19.35.37.5.54l-.14.17.17-.14.08.09c.1.11.2.23.29.35l.09.11c.11.14.22.28.33.43l.02.02c.09.12.17.23.25.36l.16.24c.07.11.14.21.2.32l.27.45h0c.55.96.98,1.96,1.29,3,.4,1.33.6,2.7.6,4.08ZM395.41,150.52c-.34-2.03-2.69-3.61-5.68-3.61-2.72,0-5.29,1.57-5.68,3.61-.05.27.16.52.43.52h10.49c.27,0,.48-.25.44-.52Z"/><path class="cls-2" d="M446.71,131.93v35.37c0,.24-.2.44-.44.44h-7.7c-.24,0-.44-.2-.44-.44v-.41c0-.17-.18-.27-.33-.19-2.21,1.25-4.7,1.9-7.26,1.9-8.07,0-14.64-6.48-14.64-14.43s6.57-14.43,14.64-14.43c2.56,0,5.05.66,7.26,1.9.15.08.33-.02.33-.19v-9.52c0-.24.2-.44.44-.44h7.7c.24,0,.44.2.44.44ZM438.12,154.17c0-3.65-2.57-6.62-6.27-6.62s-6.71,2.97-6.71,6.62,3.01,6.62,6.71,6.62,6.27-2.97,6.27-6.62Z"/><path class="cls-2" d="M479.49,154.18c0,7.96-6.57,14.43-14.64,14.43s-14.64-6.48-14.64-14.43,6.57-14.43,14.64-14.43,14.64,6.47,14.64,14.43ZM471.23,154.18c0-3.47-2.86-6.29-6.38-6.29s-6.38,2.82-6.38,6.29,2.86,6.29,6.38,6.29,6.38-2.82,6.38-6.29Z"/><circle class="cls-2" cx="490.18" cy="166.19" r="4.64"/><path class="cls-5" d="M484.74,134.84c17.52,0,4.8,17.06,4.8,17.06v5.27"/></svg>