<?xml version="1.0" encoding="UTF-8"?><svg id="Layer_1" xmlns="http://www.w3.org/2000/svg" viewBox="0 0 692.54 567.2"><defs><style>.cls-1{fill:#0d0e40;}.cls-2{fill:none;stroke:#0d0e40;stroke-linecap:round;stroke-miterlimit:10;stroke-width:5px;}.cls-3{fill:#ecb335;}</style></defs><rect class="cls-1" x="88.49" y="116.07" width="697.1" height="350.53" rx="46.79" ry="46.79"/><rect class="cls-3" x="71.32" y="104.07" width="692.1" height="345.53" rx="44.29" ry="44.29"/><path class="cls-1" d="M719.14,106.57c23.04,0,41.79,18.75,41.79,41.79v256.94c0,23.04-18.75,41.79-41.79,41.79H115.62c-23.04,0-41.79-18.75-41.79-41.79V148.36c0-23.04,18.75-41.79,41.79-41.79h603.52M719.14,101.57H115.62c-25.74,0-46.79,21.06-46.79,46.79v256.94c0,25.74,21.06,46.79,46.79,46.79h603.52c25.74,0,46.79-21.06,46.79-46.79V148.36c0-25.74-21.06-46.79-46.79-46.79h0Z"/><path class="cls-1" d="M190.25,200.95c0,3.25-.53,9.48-4.08,14.67-4.18,6.11-11.34,9.2-21.27,9.2-8.26,0-14.72-2.14-19.24-6.35-1.96-1.9-4.87-5.57-6.31-11.52-.12-.5.19-1,.69-1.1l16.93-3.51c.46-.1.92.19,1.05.64,1.51,5.25,5.77,5.55,6.7,5.55,4.17,0,6.75-3.52,6.75-6.79,0-3.59-2.77-4.79-13.1-9.23l-.86-.37c-4.86-2.01-17.76-7.35-17.76-21.36,0-14.93,13.11-22.98,25.45-22.98,2.34,0,6.69.3,11.13,2.16,3.13,1.35,9.85,5.13,11.17,12.99.08.47-.21.92-.67,1.03l-15.71,3.92c-.42.1-.86-.1-1.03-.5-.77-1.78-2.24-3.31-5.47-3.31-2.98,0-6.07,2.05-6.07,5.49,0,3.2,1.96,4.1,14.72,9.99,12.23,5.62,17,11.61,17,21.37Z"/><path class="cls-1" d="M248.03,168.14v54.39c0,.5-.4.9-.9.9h-15.7c-.5,0-.9-.4-.9-.9v-1.51c0-.36-.4-.57-.7-.37-3.92,2.7-7.82,3.63-11.32,3.63-7.8,0-13.7-4.63-13.78-4.7-.45-.35-.88-.73-1.26-1.11h0c-5.73-5.76-6.69-10.43-6.69-18.71v-31.62c0-.5.4-.9.9-.9h16.75c.5,0,.9.4.9.9v30.74c0,2.08.12,4.47.99,6.4.4.82.93,1.5,1.58,2,1.05.82,2.41,1.22,4.15,1.22,3.24,0,5.74-1.11,6.54-2.9.91-1.94.91-4.6.91-6.73v-30.74c0-.5.4-.9.9-.9h16.76c.5,0,.9.4.9.9Z"/><path class="cls-1" d="M319.99,195.75c0,16.22-13.38,29.42-29.83,29.42-5.22,0-10.3-1.34-14.81-3.88-.3-.17-.67.04-.67.39v.83c0,.5-.4.9-.9.9h-15.7c-.5,0-.9-.4-.9-.9v-72.09c0-.5.4-.9.9-.9h15.7c.5,0,.9.4.9.9v19.41c0,.35.37.56.67.39,4.5-2.54,9.59-3.88,14.81-3.88,16.45,0,29.83,13.2,29.83,29.42ZM301.15,195.75c0-7.44-6.14-13.49-13.68-13.49s-12.78,6.05-12.78,13.49,5.24,13.49,12.78,13.49,13.68-6.05,13.68-13.49Z"/><path class="cls-1" d="M370.27,206.67c-.14,1.97-.65,4.06-1.51,6.22-3.36,7.16-11.13,11.42-20.79,11.42-1.33,0-2.71-.08-4.08-.24-4.35-.51-8.15-1.67-11.3-3.44-3.24-2.2-5.71-5.26-7.38-9.13-.23-.52.08-1.12.63-1.24l15.4-3.31c.36-.08.73.07.93.38,1.08,1.61,2.91,2.4,3.91,2.51,2.35.28,3.58-.35,4.19-.93.62-.58.9-1.38.79-2.25-.24-1.95-1.41-2.85-7.37-5.69l-.08-.04c-1.19-.56-2.66-1.27-4.31-2.08-1.14-.49-2.24-1.02-3.28-1.58l-.09-.05c-.15-.09-.29-.17-.45-.26-5.34-3.06-8.46-6.79-9.26-11.09-1.15-6.13,2.8-11.34,3.6-12.32,1.19-1.35,2.58-2.53,4.13-3.52,4.67-2.98,10.7-4.21,16.96-3.48,3.76.44,7.17,1.45,10.13,3.01,1.41.74,2.72,1.62,3.89,2.6.81.72,3.32,3.21,4.1,7.02.1.48-.22.95-.71,1.05l-15.15,3.06c-.43.09-.84-.16-1-.56-.43-1.05-1.36-2.12-3.36-2.35-1.33-.16-2.53.24-3.3,1.09-.58.64-.82,1.44-.63,2.1.29,1.01,1.33,2.61,6.98,4.91,1.13.44,2.15.84,3.19,1.26,1.32.47,2.59.98,3.78,1.5h0c3.6,1.68,11.92,6.55,11.42,15.42Z"/><path class="cls-1" d="M430.87,211.21c-.45.69-1.08,1.66-1.44,2.12,0,0-.02.02-.02.03-.55.73-1.14,1.43-1.76,2.1-.01.02-.03.03-.05.05-.25.27-.67.7-.92.96-.05.05-.09.09-.14.14-.26.26-.54.51-.81.76-.16.14-.32.29-.48.43-.11.1-.23.2-.34.29-4.31,3.63-9.62,6.02-15.29,6.8-.19.03-.38.05-.57.07-.23.03-.47.05-.7.08-.36.03-.73.06-1.1.08-.13,0-.26.01-.4.02-.44.02-.88.03-1.33.03-16.45,0-29.83-13.2-29.83-29.42s13.38-29.42,29.83-29.42c.45,0,.89.01,1.33.03.13,0,.26.01.4.02.37.02.73.05,1.1.08.23.02.47.05.7.08.19.02.38.05.57.07,5.67.78,10.98,3.17,15.29,6.8.11.1.23.19.34.29.16.14.33.29.49.43.27.25.54.5.81.76.05.05.1.1.15.15.28.28.56.56.83.85.05.05.09.1.14.15.62.67,1.2,1.37,1.76,2.1,0,.01.01.02.02.03.56.74,1.09,1.51,1.58,2.3h0c.2.33.09.77-.25.97l-7.97,4.6-4.6,2.66c-.41.24-.93.12-1.19-.27-2.61-3.97-6.24-6.17-10.58-6.17s-7.98,1.89-10.49,4.84c-2.12,2.28-3.41,5.32-3.41,8.65s1.29,6.37,3.41,8.65c2.51,2.96,6.28,4.84,10.49,4.84s7.97-2.2,10.58-6.17c.26-.39.78-.51,1.19-.27l12.37,7.14c.44.26.58.83.31,1.26Z"/><path class="cls-1" d="M468.73,168.19l-.54,13.14c-.02.51-.46.9-.98.86-1.54-.14-4.61-.35-6.42.09-2.02.49-3.19,2.04-3.52,2.8-.91,1.94-.91,3.66-.91,5.84v31.62c0,.5-.4.9-.9.9h-16.76c-.5,0-.9-.4-.9-.9v-54.39c0-.5.4-.9.9-.9h15.7c.5,0,.9.4.9.9v1.57c0,.35.38.56.68.38,3.72-2.32,8.13-2.79,11.83-2.84.52,0,.93.42.91.94Z"/><path class="cls-1" d="M492.51,150.45v11.46c0,.5-.4.9-.9.9h-15.7c-.5,0-.9-.4-.9-.9v-11.46c0-.5.4-.9.9-.9h15.7c.5,0,.9.4.9.9ZM492.51,168.14v54.39c0,.5-.4.9-.9.9h-15.7c-.5,0-.9-.4-.9-.9v-54.39c0-.5.4-.9.9-.9h15.7c.5,0,.9.4.9.9Z"/><path class="cls-1" d="M564.53,195.75c0,16.22-13.38,29.42-29.83,29.42-5.22,0-10.3-1.34-14.81-3.88-.3-.17-.67.04-.67.39v.83c0,.5-.4.9-.9.9h-15.7c-.5,0-.9-.4-.9-.9v-72.09c0-.5.4-.9.9-.9h15.7c.5,0,.9.4.9.9v19.41c0,.35.37.56.67.39,4.5-2.54,9.59-3.88,14.81-3.88,16.45,0,29.83,13.2,29.83,29.42ZM545.69,195.75c0-7.44-6.14-13.49-13.68-13.49s-12.78,6.05-12.78,13.49,5.24,13.49,12.78,13.49,13.68-6.05,13.68-13.49Z"/><path class="cls-1" d="M629.34,195.77c0,1.62-.19,3.53-.48,5.22-.07.43-.45.75-.89.75h-39.35c-.7,0-1.13.76-.77,1.36,2.42,4.1,6.75,6.65,11.53,6.65,4.07,0,7.86-1.79,10.56-5.24.21-.27.54-.4.87-.34l15.07,2.71c.58.1.91.73.65,1.27-.34.71-.77,1.58-1.02,2.02h.01s-.25.42-.25.42c-.23.39-.47.77-.75,1.2-.35.54-.67,1-.99,1.42l-.19.26h-.02c-.11.14-.21.28-.32.41l-.17.21c-.21.26-.41.5-.62.74l-.18.21c-.34.38-.66.73-1.03,1.11l-.2.21c-.24.24-.48.47-.72.7l-.07.07c-.26.25-.53.49-.81.73l-.3.25-.34-.3.29.34c-.42.36-.82.67-1.21.97l-.34.25c-.46.34-.94.67-1.42.98l-.14.09c-.56.35-1.12.69-1.68,1l-.16.09c-.14.07-.27.15-.41.22l-.1.05c-.26.14-.49.25-.73.37l-.14.06c-.53.26-1.03.48-1.53.69l-.1.04c-.34.14-.64.25-.94.36l-.36.13c-.37.13-.74.26-1.11.37l-.07.02c-.4.12-.82.24-1.3.37l-.34.09c-.86.21-1.71.38-2.57.52l-.32.05c-.91.13-1.8.22-2.69.27l-.33.02c-.54.02-.97.03-1.38.03s-.87-.01-1.38-.03c-.1,0-.21-.01-.31-.02h-.1c-.34-.03-.68-.05-1.01-.08h-.1c-.1-.02-.2-.03-.29-.04-.49-.05-.92-.1-1.31-.16h-.01s-.01,0-.02,0l-.24-.04c-.36-.06-.73-.12-1.09-.2l-.39-.08c-.32-.07-.64-.14-.96-.22l-.1-.03c-.09-.02-.19-.04-.28-.07-.47-.12-.89-.24-1.27-.36-.43-.13-.84-.27-1.25-.42-.1-.04-.19-.07-.29-.11l-.07-.03c-.3-.11-.6-.23-.9-.35l-.08-.03c-.09-.04-.18-.07-.28-.11-.4-.17-.79-.34-1.19-.53l-.04-.02c-.35-.17-.74-.36-1.12-.56-.09-.05-.18-.1-.27-.15l-.07-.04c-.28-.15-.56-.31-.83-.47l-.33-.2c-.37-.22-.73-.45-1.08-.69-3.56-2.37-6.61-5.53-8.84-9.15-.19-.3-.37-.61-.54-.92l-.08-.14c-.17-.3-.33-.6-.48-.91l-.09-.17c-.05-.09-.1-.18-.14-.27-.56-1.14-1.07-2.37-1.49-3.63-.24-.7-.41-1.3-.56-1.86-.12-.46-.23-.94-.33-1.42-.3-1.45-.49-2.93-.57-4.42-.03-.5-.04-1.01-.04-1.51s.01-1.02.04-1.52c.13-2.61.62-5.2,1.46-7.7.27-.82.55-1.56.84-2.24.17-.4.35-.79.54-1.17.04-.09.09-.18.13-.27l.11-.22c.04-.09.09-.18.14-.27.05-.09.1-.19.15-.28l.26-.48c.21-.37.42-.74.65-1.11,2.22-3.61,5.28-6.78,8.84-9.15.35-.24.72-.46,1.08-.68l.33-.2c.28-.16.55-.32.83-.47l.07-.04c.09-.05.18-.1.27-.15.38-.2.76-.4,1.15-.58.4-.19.79-.36,1.19-.53.09-.04.18-.08.28-.11l.08-.03c.3-.12.6-.24.9-.35l.09-.03c.09-.04.19-.07.28-.1.41-.15.83-.29,1.24-.42.43-.13.85-.25,1.28-.36.09-.02.19-.05.28-.07l.1-.02c.32-.08.64-.15.96-.22l.23-.05c.39-.08,1.02-.2,1.42-.26h.07s.01-.01.02-.01h.01c.39-.06.82-.11,1.31-.17.1,0,.2-.02.3-.03h.1c.33-.04.67-.06,1.01-.08h.08c.11-.01.22-.02.33-.02.52-.02.97-.03,1.38-.03s.84.01,1.36.03l.33.02c.91.05,1.8.14,2.68.27l.36.05c.85.13,1.71.31,2.54.51l.37.09c.48.12.9.24,1.28.36l.06.02c.39.12.76.25,1.12.38.11.04.22.08.34.12.34.13.63.24.93.36l.15.06c.48.2.99.43,1.51.68l.13.06c.26.12.49.24.72.36l.08.04-.19.4.23-.38c.14.07.28.15.41.22.51.28,1.32.77,1.82,1.08l.06.04c.52.34,1.01.67,1.48,1.02l.08.06c.1.07.19.14.29.21.41.31.8.63,1.22.98l.24.2c.31.27.62.54.92.82l.08.07c.24.23.48.46.71.69l.18.18c.38.39.71.75,1.03,1.11l-.29.34.34-.29.16.18c.2.23.4.47.59.71l.19.23c.23.29.45.58.67.87l.03.04c.18.24.35.48.52.73l.32.49c.14.22.28.43.42.65l.55.91h0c1.11,1.95,1.99,4,2.62,6.11.81,2.7,1.21,5.5,1.22,8.31ZM611.75,188.31c-.7-4.14-5.49-7.37-11.58-7.37-5.54,0-10.79,3.21-11.58,7.35-.1.55.32,1.07.89,1.07h21.38c.56,0,.98-.5.89-1.05Z"/><line class="cls-2" x1="149.91" y1="296.85" x2="715.9" y2="296.85"/><line class="cls-2" x1="149.91" y1="336.88" x2="715.9" y2="336.88"/><line class="cls-2" x1="149.91" y1="376.91" x2="715.9" y2="376.91"/></svg>