<?xml version="1.0" encoding="UTF-8"?><svg id="Layer_1" xmlns="http://www.w3.org/2000/svg" viewBox="0 0 692.54 567.2"><defs><style>.cls-1,.cls-2{fill:#da0410;}.cls-3{fill:#ecb335;}.cls-3,.cls-4,.cls-5,.cls-2{stroke:#0d0e40;stroke-miterlimit:10;stroke-width:5px;}.cls-6{fill:#fff;}.cls-7,.cls-5{fill:#0d0e40;}.cls-4{fill:none;}</style></defs><path class="cls-6" d="M91.66,61.11h509.94c14.69,0,26.62,11.93,26.62,26.62v391.67c0,14.69-11.93,26.62-26.62,26.62H91.66c-14.69,0-26.62-11.93-26.62-26.62V87.73c0-14.69,11.93-26.62,26.62-26.62Z"/><path class="cls-7" d="M601.6,63.61c13.3,0,24.12,10.82,24.12,24.12v391.67c0,13.3-10.82,24.12-24.12,24.12H91.66c-13.3,0-24.12-10.82-24.12-24.12V87.73c0-13.3,10.82-24.12,24.12-24.12h509.94M601.6,58.61H91.66c-16.02,0-29.12,13.1-29.12,29.12v391.67c0,16.02,13.1,29.12,29.12,29.12h509.94c16.02,0,29.12-13.1,29.12-29.12V87.73c0-16.02-13.1-29.12-29.12-29.12h0Z"/><line class="cls-4" x1="62.54" y1="157.11" x2="628.89" y2="157.11"/><ellipse class="cls-2" cx="125.7" cy="112.49" rx="12.97" ry="13.49"/><ellipse class="cls-3" cx="176.38" cy="112.49" rx="12.97" ry="13.49"/><ellipse class="cls-5" cx="227.06" cy="112.49" rx="12.97" ry="13.49"/><rect class="cls-1" x="106.46" y="212.38" width="480.34" height="88.73" rx="22.36" ry="22.36"/><path class="cls-7" d="M564.44,214.88c10.95,0,19.86,8.91,19.86,19.86v44.02c0,10.95-8.91,19.86-19.86,19.86H128.81c-10.95,0-19.86-8.91-19.86-19.86v-44.02c0-10.95,8.91-19.86,19.86-19.86h435.63M564.44,209.88H128.81c-13.67,0-24.86,11.19-24.86,24.86v44.02c0,13.67,11.19,24.86,24.86,24.86h435.63c13.67,0,24.86-11.19,24.86-24.86v-44.02c0-13.67-11.19-24.86-24.86-24.86h0Z"/><path class="cls-3" d="M159.65,232.41l-23.78,39.59c-2.27,3.78.45,8.6,4.87,8.6h48.57c4.46,0,7.18-4.91,4.81-8.69l-24.79-39.59c-2.25-3.59-7.49-3.54-9.68.09Z"/><path class="cls-7" d="M162.42,269.24c0-1.52,1.05-2.62,2.49-2.62,1.52,0,2.49,1.1,2.49,2.62s-.97,2.62-2.49,2.62-2.49-1.14-2.49-2.62ZM163.48,263.21l-.59-20.25h4.05l-.59,20.25h-2.87Z"/></svg>